<svg xmlns="http://www.w3.org/2000/svg" xmlns:xlink="http://www.w3.org/1999/xlink" viewBox="0 0 45.97 61.78"><defs><style>.a,.c,.d,.e,.f,.g{fill:none;}.b{clip-path:url(#a);}.c,.e{stroke:#231f20;}.c,.d{stroke-width:3px;}.d,.f,.g{stroke:#557ebf;}.e,.f,.g{stroke-width:2px;}.g{stroke-miterlimit:5;}</style><clipPath id="a" transform="translate(-255 -169.22)"><rect class="a" x="255" y="169.22" width="48.77" height="61.78"/></clipPath></defs><title>G</title><g class="b"><path class="c" d="M294.4,170.75" transform="translate(-255 -169.22)"/><path class="d" d="M295.91,184.24c-1.08-16-19.77-14.93-27.75-11.24s-10.11,9.95-11,16.13a56.7,56.7,0,0,0-.64,6.72c0,2.8-.21,8.56.16,12.26,2.16,21.14,9.16,20,17.64,21.14,6,.78,23.91.84,23.91-16.66" transform="translate(-255 -169.22)"/></g><path class="e" d="M290.89,208.11" transform="translate(-255 -169.22)"/><g class="b"><path class="e" d="M303.77,208.09" transform="translate(-255 -169.22)"/><line class="f" x1="37.73" y1="42.8" x2="45.97" y2="42.8"/><line class="g" x1="44.97" y1="41.8" x2="44.97" y2="49.06"/></g></svg>