<svg xmlns="http://www.w3.org/2000/svg" viewBox="0 0 705.42 406.82"><defs><style>.cls-1{fill:#231f20;}.cls-2{fill:#fff;}.cls-3{opacity:0.59;}</style></defs><title>space background</title><g id="Layer_2" data-name="Layer 2"><path class="cls-1" d="M693.77,4l-1.25,34.19c-.12,3.25,4.74,3.16,5,0l1.37-16.33h-5l-1.83,43.62c-.14,3.29,4.62,3.1,5,0L699.45,46h-5q-1.35,137.59-.39,275.18.29,38.9.74,77.77c0,3.22,5,3.22,5,0q-1.63-137.58-.93-275.18.2-38.88.58-77.77c0-3.3-4.62-3.1-5,0l-2.39,19.42h5l1.83-43.62c.13-3.25-4.74-3.17-5,0l-1.37,16.33h5L698.77,4c.12-3.21-4.88-3.21-5,0Z" transform="translate(2.01 1.52)"/><path class="cls-1" d="M698.9,46,699,3c0-3.22-5-3.22-5,0l-.13,43c0,3.22,5,3.22,5,0Z" transform="translate(2.01 1.52)"/><path class="cls-1" d="M695,5.5c3.22,0,3.22-5,0-5s-3.22,5,0,5Z" transform="translate(2.01 1.52)"/><path class="cls-1" d="M695,.29,685,1.52A2.58,2.58,0,0,0,682.5,4a2.52,2.52,0,0,0,2.5,2.5l10-1.23a2.58,2.58,0,0,0,2.5-2.5A2.51,2.51,0,0,0,695,.29Z" transform="translate(2.01 1.52)"/><path class="cls-1" d="M695.47,393.79c-6.11.55-12.22,1.07-18.27-.19-3.14-.65-4.48,4.16-1.33,4.82,6.53,1.36,13,1,19.6.37,3.17-.29,3.2-5.29,0-5Z" transform="translate(2.01 1.52)"/><path class="cls-1" d="M688.62,13.27,685,12.7l-.15,4-.15,4-.36,9.94q-.39,10.92-.77,21.86-.69,19.86-1.31,39.74-1.28,41.25-2.12,82.49c-1.05,54.33-1.36,108.67-.36,163q.42,22.86,1.16,45.71c.15,4.74-1.31,13.51,3,16.95,4.06,3.26,8.46-.05,8.94-4.56a4.45,4.45,0,0,0-2.23-3.88l-.49-.31c-4.93-3.09-9.45,4.7-4.55,7.77l.5.31-2.23-3.89-.07.67,1.32-3.18.8-.45,4.38,1.16,0,.33c0-1.32-.09-2.65-.14-4s-.09-2.65-.13-4c-.11-3.31-.22-6.63-.32-9.94q-.33-10.92-.59-21.86-.47-19.86-.69-39.74-.5-41.25-.11-82.5c.46-54.34,1.86-108.68,3.66-163q.76-22.86,1.6-45.71c.18-4.92,2.58-14.14-2.19-17.56-3.42-2.46-8.81-1.31-10.5,2.66-2.24,5.27,5.51,9.87,7.77,4.55Z" transform="translate(2.01 1.52)"/><path class="cls-1" d="M694.59,396.36c-1.66-90.36,3.67-180.66,3.53-271,0-25.47-.54-50.94-1.73-76.39-.26-5.76-9.27-5.8-9,0,4.2,90.31-.56,180.65-1.84,271-.36,25.48-.43,51,0,76.44.11,5.79,9.11,5.81,9,0Z" transform="translate(2.01 1.52)"/><path class="cls-1" d="M697.15,8.08a5.18,5.18,0,0,0-10.1-1.61c-.94,2.63-.09,5.9.16,8.63l.91,9.9c.53,5.72,9.53,5.78,9,0l-.79-8.58-.36-4c-.07-.68.1-4-.52-2.77l-2.69,2.07.57-.11-3.47-.46.5.3L688.13,7.6l0,.48c.21,5.78,9.21,5.81,9,0Z" transform="translate(2.01 1.52)"/><path class="cls-1" d="M687.3,366.3A88.54,88.54,0,0,1,690.68,387c.25,5.77,9.25,5.8,9,0a99.17,99.17,0,0,0-3.7-23.08c-1.6-5.56-10.28-3.19-8.68,2.39Z" transform="translate(2.01 1.52)"/><path class="cls-1" d="M687.62,3c-3.41-4.41-11.27-.74-9.74,4.77,1.59,5.77,9.34,4.68,10.89-.42,1-3.42-2.3-6.27-5.53-5.54l-7.11,1.62c-2.57.58-3.49,3.22-3.14,5.53,1.85,12.35,1.25,24.89.6,37.31s-1.15,24.85-1.35,37.29c-.41,25,.08,49.92,1,74.86,1.79,49.28,5.18,98.5,6.33,147.8.66,28.23.55,56.48-.94,84.69-.31,5.78,8.69,5.77,9,0,5.34-100.57-7.56-200.89-6.46-301.44q.23-20.66,1.32-41.27c.74-13.94,1.26-27.77-.81-41.63l-3.15,5.54,7.11-1.62L680.1,5l-.22.72L681.94,3l.74-.32L685.87,4l-.47-.59,1.15,4.38.23-.72-2.06,2.69-.74.34L680.8,8.81l.46.59C684.8,14,691.12,7.57,687.62,3Z" transform="translate(2.01 1.52)"/><path class="cls-1" d="M680.69,390.21c-3.19,4.16-9.05-1.5-10.36-4.29-2.65-5.68-2.48-12.87-3.07-19q-2-20.81-3.72-41.63-3.39-40.68-5.83-81.41c-3.22-53.91-6.87-108.48-3.92-162.47a409.55,409.55,0,0,1,4.69-44.61c1.21-7.32,2-15.6,4.54-22.6,1.32-3.66,4.92-2.85,8.43-3.15l11.11-.94c5.73-.49,5.78-9.49,0-9l-17.3,1.46c-5.69.48-5.87,9.16,0,9l6.27-.17c4.93-.13,6.28-7.63,1.19-8.84l-12-2.84-1.2,8.83L682,7.49c5.77-.28,5.8-9.28,0-9L659.51-.44c-4.88.24-6.34,7.63-1.2,8.84l12,2.85,1.2-8.84-6.27.17v9l17.3-1.46v-9c-6.64.56-14.22.21-20.67,2-6,1.67-7.21,7.08-8.42,12.46a371.91,371.91,0,0,0-7.07,44.77c-3.06,30.7-2.83,61.61-1.88,92.4,1.94,62.9,5.87,125.74,11.38,188.42q1.14,12.9,2.36,25.77c.7,7.33.77,15.3,3.71,22.16,4.52,10.55,18.6,16,26.49,5.67,3.52-4.6-4.29-9.09-7.77-4.55Z" transform="translate(2.01 1.52)"/><path class="cls-1" d="M676.29,16a494,494,0,0,1,.85,82c-.41,5.78,8.59,5.76,9,0A494,494,0,0,0,685.29,16c-.53-5.72-9.54-5.77-9,0Z" transform="translate(2.01 1.52)"/><path class="cls-1" d="M672.46,14.77a192.41,192.41,0,0,0-2.53,49.16c.31,3.92,6.45,6.78,8.39,2.27A9.38,9.38,0,0,0,679.41,61c-.47-5.73-9.47-5.78-9,0l.14.67,8.38,2.27a183.24,183.24,0,0,1,2.21-46.77c1-5.66-7.66-8.09-8.68-2.39Z" transform="translate(2.01 1.52)"/><path class="cls-1" d="M667.88,6q-2.24,32.74-1.48,65.57c.14,5.79,8.89,5.8,9,0a283.4,283.4,0,0,0-5-58.78c-1-5.1-8.75-3.74-8.83,1.2l-1,58c-.1,5.83,8.7,5.76,9,0a243.89,243.89,0,0,0-2.77-51.07c-.86-5.42-8.33-3.39-8.84,1.2l-7.14,63.58h9a627.86,627.86,0,0,0,3.07-65.62c0-4.89-8-6.35-8.84-1.2a611.75,611.75,0,0,0-8.08,89c-.1,5.88,8.48,5.67,9,0l4.63-50.77c.54-5.84-8.28-5.61-9,0q-6.95,54.27-8.53,109c-.14,5.06,7.61,6.13,8.84,1.2A380.68,380.68,0,0,0,662,87.46c.19-5.81-8.69-5.76-9,0l-3.93,74.16c-.26,5,8,6.24,8.84,1.19a559.32,559.32,0,0,0,7.69-96.09c0-4.87-8.09-6.36-8.84-1.19a336.72,336.72,0,0,0,.83,101.61c.87,5.41,8.35,3.42,8.84-1.19q4.81-45,5.58-90.34c.1-5.84-8.6-5.72-9,0a417.84,417.84,0,0,0,3.78,92c.76,5,9.11,3.83,8.84-1.2a738.1,738.1,0,0,1-.1-78.29h-9l2.65,66c.19,4.79,8,6.44,8.84,1.19q4-26.39,6.34-53h-9l1.39,43.88c.15,4.82,8,6.42,8.84,1.2a149.36,149.36,0,0,0,1.44-36.76,4.5,4.5,0,0,0-9,0,426,426,0,0,0-.79,66.83,4.52,4.52,0,0,0,8.84,1.2c1.79-5.06-1.17-9.8-6-11.47-3-1-5.39,1.66-5.7,4.34l-8.64,75.74,8.84-1.19L666.8,211c-1.1-4.94-9-3.88-8.84,1.2l1.14,31.13c.21,5.78,8.87,5.81,9,0a323,323,0,0,0-8.47-81.15c-1-4.15-7.9-4.43-8.68,0a174.9,174.9,0,0,0-2.18,44.65c.47,5.74,8.67,5.83,9,0a178.06,178.06,0,0,0-2.5-41.3c-.76-4.29-7.92-4.29-8.68,0A268.73,268.73,0,0,0,642.65,224c.25,5.79,8.71,5.78,9,0l1.89-37.61h-9a289.61,289.61,0,0,0,5,58.62c1,5.47,8.23,3.35,8.84-1.2q5.36-40.05,8-80.39h-9a438.27,438.27,0,0,0,2.9,74.13c.71,5.65,8.6,5.92,9,0l3.94-56.91h-9l.15,70.91c0,5.85,8.61,5.73,9,0a666,666,0,0,0-.28-96.22c-.4-5.29-6.9-5.81-8.84-1.19-5.47,13-3,27.86-2.06,41.51q1.63,23.76,3.29,47.52c.33,4.79,7.69,6.44,8.84,1.2a24,24,0,0,0-3.51-19.22,4.57,4.57,0,0,0-8.23,1.08,203.17,203.17,0,0,0-9.79,48.05h9a271.88,271.88,0,0,0-7.25-57.94c-1-4.35-7.58-4.22-8.68,0a186.89,186.89,0,0,0-6,50.54c.09,4.87,8,6.38,8.84,1.2a117.46,117.46,0,0,0-.12-40.8c-.75-4.23-8.05-4.36-8.68,0a144.45,144.45,0,0,0,2.45,54.76c.84,3.47,6.68,4.73,8.23,1.08a97,97,0,0,0,7.86-37.62c0-5.9-8.43-5.65-9,0a282.71,282.71,0,0,0-.23,55.19,4.5,4.5,0,0,0,9,0l4-41.67h-9l4.52,41.63c.62,5.68,8.63,5.88,9,0L670.21,247h-9l2,43.59c.27,5.85,8.51,5.73,9,0l4.38-51.08h-9a396.83,396.83,0,0,0,1.42,47.4c.51,5.72,8.66,5.85,9,0l2.55-44.48h-9l-2.92,58.76h9a363,363,0,0,1,3.41-53.63l-8.84-1.2.84,97.29,8.84-1.2a438.66,438.66,0,0,1-4-58.06h-9q.81,47.1,5.65,94l8.84-1.2-1.22-5.83c-1-5-9.07-3.87-8.84,1.19l1,22.13,4.5-4.5a177.61,177.61,0,0,1-55-3.05c-5.65-1.22-8.06,7.45-2.4,8.67a185.1,185.1,0,0,0,57.4,3.38c2.33-.23,4.62-1.87,4.5-4.5l-1-22.13-8.84,1.2,1.22,5.83c1,4.89,9.37,3.9,8.84-1.19q-4.83-46.85-5.65-94c-.1-5.78-9-5.8-9,0a456.29,456.29,0,0,0,4.28,60.46c.7,5.09,8.89,3.76,8.84-1.2l-.84-97.29c0-4.87-8.12-6.37-8.84-1.2a377.82,377.82,0,0,0-3.73,56c.06,5.82,8.72,5.76,9,0l2.92-58.76c.28-5.8-8.67-5.77-9,0l-2.55,44.48h9a396.83,396.83,0,0,1-1.42-47.4c.17-5.86-8.52-5.69-9,0l-4.38,51.08h9l-2-43.59c-.27-5.81-8.63-5.77-9,0l-3.41,53.73h9l-4.52-41.63a4.5,4.5,0,0,0-9,0l-4,41.67h9a282.71,282.71,0,0,1,.23-55.19h-9a85.62,85.62,0,0,1-6.63,33.08l8.22,1.07a132.68,132.68,0,0,1-2.45-50h-8.68a104.49,104.49,0,0,1,.12,36l8.84,1.19a177.29,177.29,0,0,1,5.68-48.15h-8.68a260,260,0,0,1,6.93,55.55c.1,5.87,8.54,5.71,9,0a193.1,193.1,0,0,1,9.47-45.66l-8.22,1.07a15.12,15.12,0,0,1,2.6,12.29l8.84,1.19q-1.57-22.77-3.16-45.54c-.92-13.39-3.76-28.33,1.61-41.1l-8.84-1.2a667.42,667.42,0,0,1,.28,96.22h9l-.15-70.91c0-5.84-8.6-5.72-9,0l-3.94,56.91h9a438.27,438.27,0,0,1-2.9-74.13c.26-5.81-8.63-5.74-9,0q-2.64,40.32-8,80.39l8.84-1.19a277.58,277.58,0,0,1-4.7-56.23c.09-5.82-8.72-5.76-9,0L642.65,224h9a257.92,257.92,0,0,1,3.62-56.12h-8.68a167.82,167.82,0,0,1,2.18,38.9h9a165.74,165.74,0,0,1,1.86-42.26H651a313.42,313.42,0,0,1,8.15,78.76h9L667,212.18l-8.84,1.19,7.8,35.17c1.18,5.34,8.3,3.48,8.84-1.2l8.64-75.74-5.69,4.34-.29.39,8.84,1.2a426,426,0,0,1,.79-66.83h-9a139.65,139.65,0,0,1-1.12,34.36l8.84,1.2-1.39-43.88c-.19-5.86-8.51-5.71-9,0q-2.19,25.38-6,50.58l8.84,1.2-2.65-66c-.23-5.8-8.7-5.78-9,0a738.1,738.1,0,0,0,.1,78.29l8.84-1.19A407.17,407.17,0,0,1,672,75.61h-9q-.76,45.27-5.58,90.34l8.84-1.2a322.06,322.06,0,0,1-.83-96.83l-8.84-1.2a545.6,545.6,0,0,1-7.37,93.7l8.84,1.2L662,87.46h-9a368.56,368.56,0,0,1-10.81,77.43l8.83,1.2q1.58-54.68,8.53-109h-9l-4.63,50.77h9a594.41,594.41,0,0,1,7.76-86.62l-8.84-1.19a627.86,627.86,0,0,1-3.07,65.62c-.57,5.78,8.37,5.68,9,0l7.14-63.58-8.84,1.2A232.46,232.46,0,0,1,660.54,72h9l1-58-8.84,1.2a272,272,0,0,1,4.72,56.38h9Q674.65,38.72,676.88,6c.4-5.78-8.61-5.76-9,0Z" transform="translate(2.01 1.52)"/><path class="cls-1" d="M654.34,275.8l-3.22-14.7c-1.08-4.88-9.25-3.9-8.84,1.2A782,782,0,0,1,644.16,355h9a326.2,326.2,0,0,1,22.37-153.85L666.69,200l1.07,70.28c.09,5.92,8.39,5.64,9,0l6-55.6c.55-5-7.95-6.19-8.84-1.2a195.56,195.56,0,0,0-2.28,52.59c.45,4.8,7.45,6.4,8.84,1.19A110.55,110.55,0,0,0,684,230.6c-.42-5.87-8.35-5.7-9,0-5.46,47.71-3.73,95.76-1.9,143.63L682,373,675.05,334c-.87-4.93-9.43-3.85-8.84,1.2A328,328,0,0,1,668.53,378c0,2.36.79,7.24-2.28,7.57-2.76.28-5.94-2.33-8.21-3.47-5-2.49-9.77-3.54-14.9-.95l6.61,5.09a199.59,199.59,0,0,1,22.17-57L663.53,327a437.09,437.09,0,0,1-7.75,43.84c-1.3,5.63,7.1,8,8.67,2.39l4-14.25-8.84-1.2.26,9.65c.11,4.13,6.42,6.56,8.39,2.28a105.73,105.73,0,0,0,5.92-16.17l-8.84-1.19-2.47,22.51h9q.25-43.79-2.82-87.49c-.34-4.77-7.71-6.45-8.84-1.19A180.43,180.43,0,0,0,658,348.89c.71,5.17,8.72,3.68,8.84-1.19l1.36-54.25c.14-5.85-8.57-5.71-9,0l-4.45,57.8c-.39,5,8,6.22,8.84,1.2a153.27,153.27,0,0,0-.68-54c-.73-3.81-6.46-4.34-8.23-1.07a123.8,123.8,0,0,0-14.37,48.48h9l.66-31.16c.11-5-7.62-6.16-8.84-1.2a158.2,158.2,0,0,0-3.76,54.58c.51,4.71,7.55,6.51,8.84,1.2a331.73,331.73,0,0,0,8.39-52.68c.39-5-7.93-6.2-8.84-1.2a109.92,109.92,0,0,0,1,44.72c.81,3.53,6.63,4.66,8.22,1.07a61.06,61.06,0,0,0,4.23-37.27c-1-5.11-8.73-3.73-8.84,1.2q-.51,21.57,1.13,43.09c.45,5.91,8.26,5.66,9,0l1.23-9.29h-9c.32,11.59-10,20.85-21.43,19.77-5.37-.51-5.64,7.21-1.2,8.84a32,32,0,0,1,11.07,6.92l3.18-7.68A25.81,25.81,0,0,1,634.17,383l-1.07,8.22a19.89,19.89,0,0,0,14.09-18.55c.13-3.28-4-5.79-6.77-3.89a16.9,16.9,0,0,0-7.12,18.9c1,3.55,6.43,4.61,8.22,1.07l9.08-18-8.23-3.47a34.5,34.5,0,0,0,.29,15.1c.89,3.66,6.45,4.51,8.22,1.07l5-9.63-8.38-2.27L646.6,385c-.28,4.35,6.49,6.29,8.39,2.28l5.66-11.91-8.39-2.27-.58,6.86c-.37,4.31,6.61,6.33,8.38,2.27l2.71-6.18H655c.37.56-.44,2.47-.46,3.22a8.08,8.08,0,0,0,.55,3.41,6,6,0,0,0,5.46,4c4.44,0,6.85-5.2,4.7-8.84a4.48,4.48,0,0,0-3.88-2.23l-.54,0a4.49,4.49,0,0,0-3.88,2.23,41.42,41.42,0,0,0-3.74,12.86l5.7-4.34-10.2-2.65-1.19,8.84,8.1.11-2.27-8.38a6.63,6.63,0,0,1-5.35,1.3c-5.73-.71-5.68,8.3,0,9a13.85,13.85,0,0,0,9.89-2.53c3.52-2.49,2.44-8.32-2.27-8.39l-8.1-.11c-5.06-.08-6.14,7.55-1.2,8.84l10.2,2.65c3.12.82,5.33-1.46,5.69-4.34a27.61,27.61,0,0,1,2.51-8.32l-3.89,2.23.54,0-3.89-2.23.2-3.38,3.18-1.31-.63,0,3.19,1.32c.48.41.73-2.47.72-3.22a7.48,7.48,0,0,0-1.36-4.25c-1.68-2.5-6.32-3.33-7.78,0l-2.7,6.18,8.39,2.27.58-6.86c.37-4.37-6.5-6.24-8.39-2.27l-5.65,11.9L655.6,385l.88-13.37c.29-4.43-6.37-6.17-8.39-2.28l-5,9.64,8.23,1.07a23.31,23.31,0,0,1-.29-10.31c.92-4.7-5.78-8.3-8.23-3.46l-9.07,18,8.22,1.07a7.62,7.62,0,0,1,3-8.73l-6.77-3.88a10.62,10.62,0,0,1-7.49,9.87,4.56,4.56,0,0,0-1.07,8.23,36.27,36.27,0,0,0,14.73,5c4,.51,5.81-5.21,3.19-7.68a43,43,0,0,0-15-9.24l-1.19,8.84c16.17,1.53,30.88-12.65,30.43-28.77-.17-6-8.27-5.58-9,0l-1.23,9.29h9q-1.63-21.51-1.13-43.09l-8.84,1.19a50.56,50.56,0,0,1-3.32,30.34l8.22,1.07a98.75,98.75,0,0,1-1-39.93l-8.84-1.19a318.11,318.11,0,0,1-8.06,50.29l8.83,1.19a150.73,150.73,0,0,1,3.44-52.18l-8.84-1.2-.66,31.16c-.13,5.86,8.51,5.69,9,0a112.44,112.44,0,0,1,13.15-43.94l-8.23-1.07a140.4,140.4,0,0,1,.68,49.19l8.84,1.2,4.45-57.8h-9l-1.36,54.25,8.84-1.2a167.46,167.46,0,0,1,2.21-57.95l-8.84-1.2q3.08,43.68,2.82,87.49c0,5.92,8.39,5.63,9,0l2.47-22.51c.56-5.13-7.54-6-8.84-1.2a89.24,89.24,0,0,1-5,14l8.39,2.27-.26-9.65c-.13-5-7.44-6.17-8.84-1.2l-4,14.26,8.67,2.39A457.84,457.84,0,0,0,672.53,327c.57-4.61-6.31-5.86-8.38-2.27a208,208,0,0,0-23.08,59.16,4.56,4.56,0,0,0,6.61,5.09c3.4-1.72,8.12,2.41,11.09,3.74a19.59,19.59,0,0,0,7.48,1.9c5.92.09,10.11-3.82,11-9.58,1.16-7.93.4-16.57.07-24.56-.36-8.45-1.07-16.88-2.07-25.28l-8.83,1.2,6.91,39.05c.88,5,9,3.83,8.84-1.2-1.83-47.87-3.56-95.92,1.9-143.63h-9a102.85,102.85,0,0,1-3.2,34.27l8.84,1.2a186.83,186.83,0,0,1,2-50.2l-8.84-1.19-6,55.6h9L675.69,200c-.08-5.39-7-5.7-8.84-1.2A332,332,0,0,0,644.16,355c.55,5.68,8.77,5.88,9,0a782,782,0,0,0-1.88-92.74l-8.84,1.19,3.22,14.71c1.24,5.65,9.92,3.26,8.68-2.4Z" transform="translate(2.01 1.52)"/><path class="cls-1" d="M662.79-.46l-4.06.57A4.44,4.44,0,0,0,656,2.18a4.55,4.55,0,0,0-.46,3.46,4.59,4.59,0,0,0,2.07,2.69,5.32,5.32,0,0,0,3.47.46l4.06-.57a4.46,4.46,0,0,0,2.69-2.07,4.59,4.59,0,0,0,.45-3.46A4.51,4.51,0,0,0,666.25,0a5.29,5.29,0,0,0-3.46-.46Z" transform="translate(2.01 1.52)"/><path class="cls-1" d="M648.46,9.31a34.51,34.51,0,0,0,8.08,3l1.2-8.84L655,3.34l3.88,6.77.91-1.42c2.5-1.7,3.33-6.29,0-7.78C648.32-4.21,646.15,10,644.87,18a228.63,228.63,0,0,0-2.94,36.85c0,5.82,8.73,5.77,9,0l1-21.9.46-9.95c.07-1.44-.34-9.68.15-10.11l-5.46.7.47.26a4.56,4.56,0,0,0,6.61-5.08c-.77-3.77-.95-7.2-5.21-8.38A10.27,10.27,0,0,0,640,2.49c-6.86,5.41-4.56,15.05-4,22.55a430.33,430.33,0,0,1,.4,61.88c-.37,5.79,8.63,5.76,9,0q1.31-20.11.77-40.28-.29-9.82-1-19.64c-.1-1.27-2.1-19.44,1.38-17.92l-2.07-2.69,1,4.75,6.61-5.08-.46-.26a4.66,4.66,0,0,0-5.46.71c-2.55,2.23-2.26,5.39-2.4,8.51L643.18,28l-1.25,26.87h9a224,224,0,0,1,1.23-24.15c.25-2.38,4.1-21.56,3.12-22V.91a10.42,10.42,0,0,0-4.13,4.66c-1.37,3.16.22,6.57,3.89,6.77l2.7.14c5,.28,6.14-7.69,1.2-8.83A25,25,0,0,1,653,1.54c-5.15-2.64-9.71,5.13-4.55,7.77Z" transform="translate(2.01 1.52)"/><path class="cls-1" d="M647.3,4.4c-3.82-4.93-11.47-6-16.32-1.89-6,5-4.9,13.55-4.57,20.5l2.92,60c.28,5.77,9.28,5.8,9,0l-2.06-42.28c-.33-6.89-.68-13.77-1-20.65-.11-2.46-.49-5.21.06-7.64.75-3.29,3.27-4.67,5.61-1.65,3.54,4.57,9.87-1.84,6.36-6.37Z" transform="translate(2.01 1.52)"/><path class="cls-1" d="M631.06,17a448.27,448.27,0,0,0,2,83c.67,5.69,9.67,5.76,9,0a448.27,448.27,0,0,1-2-83c.4-5.78-8.6-5.76-9,0Z" transform="translate(2.01 1.52)"/><path class="cls-1" d="M631.88,20a1008.81,1008.81,0,0,1-3.69,111.05c-.51,5.77,8.49,5.74,9,0a1008.81,1008.81,0,0,0,3.69-111c-.12-5.78-9.12-5.8-9,0Z" transform="translate(2.01 1.52)"/><path class="cls-1" d="M625.14,49q3.79,53.79,3.7,107.76h9A411.55,411.55,0,0,1,637.16,64h-9q.18,49.75,3.65,99.43a4.5,4.5,0,0,0,9,0L647,78.14c.43-5.87-8.32-5.62-9,0a584.85,584.85,0,0,0-3.15,105.67c.36,5.92,8.28,5.64,9,0a444.45,444.45,0,0,0,2.47-88c-.34-4.68-8.07-6.54-8.84-1.19-5.82,40.12-4.25,80.57-2.42,120.93.26,5.81,8.63,5.77,9,0A324.65,324.65,0,0,0,642.51,157c-.66-5.59-9.12-5.94-9,0l2,96.9h9c-.9-36.59-2-73.29-8.79-109.36-1-5.33-8.39-3.5-8.84,1.2A366.13,366.13,0,0,0,632.5,252c1,4.94,9.14,3.87,8.84-1.2l-5-86.91c-.34-5.9-8.32-5.65-9,0a607.31,607.31,0,0,0-1.77,127.3c.52,5.68,9.29,5.86,9,0l-2.77-54.86c-.3-5.89-8.36-5.66-9,0a408.39,408.39,0,0,0-1.28,77.78c.46,5.85,8.37,5.72,9,0q3.09-28,3.69-56.16c.13-5.8-8.78-5.78-9,0a436,436,0,0,0,3.37,72.86c.73,5.62,8.64,5.94,9,0q1.92-31.53,1.46-63.13c-.08-5.79-8.94-5.8-9,0a401,401,0,0,0,5.1,67.81c.83,5.14,8.76,3.72,8.84-1.19q.62-36.11-1.51-72.15a4.5,4.5,0,0,0-9,0,250.1,250.1,0,0,0,2.11,49.6c.71,5,9.17,3.84,8.84-1.2L641,258.71h-9l8.17,62c.74,5.6,9.58,5.84,9,0l-4.82-49h-9l4.23,39.33c.61,5.65,9.42,5.85,9,0l-3-41.38a4.5,4.5,0,0,0-9,0,249.58,249.58,0,0,0,.74,51.34c.67,5.68,9.68,5.75,9,0a249.58,249.58,0,0,1-.74-51.34h-9l3,41.38h9l-4.23-39.33c-.62-5.68-9.57-5.79-9,0l4.82,49h9l-8.17-62c-.73-5.56-9.39-5.92-9,0l3.4,51.82,8.84-1.19a238.87,238.87,0,0,1-1.79-47.21h-9q2.12,36,1.51,72.15l8.84-1.2A386.26,386.26,0,0,1,639,267.66h-9q.45,31.59-1.46,63.13h9a436,436,0,0,1-3.37-72.86h-9q-.6,28.15-3.69,56.16h9a408.39,408.39,0,0,1,1.28-77.78h-9l2.77,54.86h9a607.31,607.31,0,0,1,1.77-127.3h-9l5,86.91,8.84-1.19a357.76,357.76,0,0,1-5.32-103.82L627,147c6.66,35.26,7.59,71.19,8.47,107,.14,5.78,9.12,5.8,9,0l-2-96.9h-9a324.65,324.65,0,0,1,1.59,58.48h9C642.31,176,640.5,136.22,646.2,97l-8.84-1.2a444.45,444.45,0,0,1-2.47,88h9A584.85,584.85,0,0,1,647,78.14h-9l-6.23,85.33h9q-3.48-49.64-3.65-99.43c0-5.92-8.4-5.65-9,0a411.55,411.55,0,0,0,.68,92.75c.68,5.59,9,6,9,0q.09-53.92-3.7-107.76c-.41-5.75-9.41-5.79-9,0Z" transform="translate(2.01 1.52)"/><path class="cls-1" d="M632.75,255.82l-2.14,11.81,8.84,1.2a211.8,211.8,0,0,0-.53-24.81c-.39-4.9-7.36-6.29-8.84-1.19a83.4,83.4,0,0,0-1.47,40.59c1.18,5.66,9.85,3.26,8.68-2.4a73.46,73.46,0,0,1,1.47-35.8l-8.84-1.2a211.8,211.8,0,0,1,.53,24.81c-.19,5,7.92,6.25,8.84,1.2l2.14-11.82c1-5.66-7.65-8.09-8.68-2.39Z" transform="translate(2.01 1.52)"/><path class="cls-1" d="M623.43,308.28A165.28,165.28,0,0,0,620.07,359c.51,5.69,9.36,5.83,9,0q-1.5-24.84-3-49.66c-.35-5.75-9.33-5.8-9,0l3.32,57.45h9a210,210,0,0,1,.13-41.5h-9q.75,26.36,3.12,52.62c.51,5.68,9,5.89,9,0q.12-24.92-.57-49.83c-.17-5.85-8.55-5.72-9,0-1.54,19.22,2,38.2,5.71,57,1,4.95,9.16,3.87,8.84-1.19l-3.15-49.55c-.36-5.73-9.26-5.82-9,0a207.79,207.79,0,0,0,6,41.36c1.23,4.9,9,3.91,8.84-1.2l-.79-34h-9q1.44,17.28,4.1,34.39c.79,5.11,8.83,3.75,8.84-1.19l0-25.41c0-4.93-7.87-6.31-8.84-1.2a64.75,64.75,0,0,0,1,29.17c1.5,5.59,10.18,3.21,8.68-2.4a54.14,54.14,0,0,1-1-24.38l-8.84-1.19,0,25.41,8.84-1.2q-2.46-15.93-3.78-32c-.47-5.68-9.13-5.87-9,0l.79,34,8.84-1.19a195.12,195.12,0,0,1-5.73-39h-9l3.15,49.55,8.83-1.2c-3.52-18-6.86-36.12-5.38-54.58h-9q.68,24.92.57,49.83h9q-2.37-26.26-3.12-52.62c-.17-5.9-8.43-5.67-9,0a210,210,0,0,0-.13,41.5c.54,5.67,9.33,5.86,9,0l-3.32-57.45h-9q1.52,24.82,3,49.66h9a157.25,157.25,0,0,1,3-48.28c1.25-5.64-7.43-8.05-8.68-2.39Z" transform="translate(2.01 1.52)"/><path class="cls-1" d="M640,391.18l-46,1.34c-5.78.17-5.8,9.17,0,9l46-1.34c5.78-.17,5.8-9.17,0-9Z" transform="translate(2.01 1.52)"/><path class="cls-1" d="M628.21,384l.27.1a4.35,4.35,0,0,0,4.38-1.16c1.24-1.59,1.88-3,1.31-5.07a4.64,4.64,0,0,0-4.34-3.3c-5.29-.34-9.87,7-12.26,10.91-2.67,4.31,3.56,9.22,7.07,5.45l6.2-6.67c3.94-4.24-2.17-10.39-6.37-6.36a78.76,78.76,0,0,0-9,10.45l7.77,4.55,7.46-11.19c2.81-4.22-3.7-9.33-7.07-5.46l-12.45,14.32,7.07,5.45,8.7-13.52c2.77-4.31-3.53-9.11-7.07-5.45l-12,12.41,7.06,5.45,14.18-21.63c2.85-4.34-3.48-9-7.06-5.45a246.69,246.69,0,0,0-18.87,20.84l7.06,5.45L630.42,366c3-4.14-3.7-9.26-7.07-5.45l-28.52,32.21,7.07,5.45L624,366.63c3-4.2-3.61-9.14-7.07-5.45l-23.82,25.43,7.07,5.45,22.56-30.89c3.12-4.27-3.48-8.81-7.06-5.46l-20.15,18.84c-4.24,4,2.13,10.32,6.36,6.36l20.15-18.83L615,356.62l-22.57,30.9c-3,4.15,3.62,9.14,7.07,5.45l23.83-25.43-7.07-5.45-22.13,31.54c-2.93,4.17,3.69,9.27,7.07,5.45l28.51-32.21-7.06-5.45L602.44,389.6c-2.94,4.11,3.86,9.43,7.07,5.45a249.82,249.82,0,0,1,18.87-20.84l-7.07-5.45-14.18,21.63c-2.82,4.3,3.54,9.1,7.07,5.45l12-12.41L619.16,378l-8.7,13.52c-2.73,4.24,3.69,9.34,7.07,5.45L630,382.64l-7.07-5.46-7.46,11.19c-3.26,4.89,4.43,9.15,7.77,4.55a64.54,64.54,0,0,1,7.62-8.64l-6.37-6.36-6.2,6.67,7.07,5.45a29.8,29.8,0,0,1,3-4.16c.59-.67,3.17-2.19,1.5-2.29l-4.34-3.31.1.37,1.16-4.38-.25.33,4.38-1.16-.28-.1c-5.42-2.06-7.76,6.64-2.39,8.68Z" transform="translate(2.01 1.52)"/><path class="cls-1" d="M594,391.5h-2a4.51,4.51,0,0,0-4.5,4.5,4.51,4.51,0,0,0,1.32,3.18A4.66,4.66,0,0,0,592,400.5h2a4.51,4.51,0,0,0,4.5-4.5,4.51,4.51,0,0,0-1.32-3.18A4.66,4.66,0,0,0,594,391.5Z" transform="translate(2.01 1.52)"/><path class="cls-1" d="M41.38,390.5H5c-5.79,0-5.8,9,0,9H41.38c5.79,0,5.8-9,0-9Z" transform="translate(2.01 1.52)"/><path class="cls-1" d="M594,390.5H94.54c-5.79,0-5.8,9,0,9H594c5.79,0,5.8-9,0-9Z" transform="translate(2.01 1.52)"/><path class="cls-1" d="M-.5,4V394.2c0,5.79,9,5.8,9,0V4c0-5.79-9-5.8-9,0Z" transform="translate(2.01 1.52)"/><path class="cls-1" d="M.82,7.18l20,20c4.1,4.1,10.46-2.26,6.36-6.36l-20-20C3.08-3.28-3.28,3.08.82,7.18Z" transform="translate(2.01 1.52)"/><path class="cls-1" d="M5.9,8.46q31.76,4,63.72,5.94,15.73.94,31.49,1.36Q109,16,116.86,16c4.71.05,9.62-.39,13.73,2.29,4.86,3.17,9.38-4.62,4.54-7.77C127.39,5.51,116.78,7.08,108,6.92Q90.77,6.59,73.56,5.63,39.63,3.76,5.9-.54c-5.74-.73-5.68,8.28,0,9Z" transform="translate(2.01 1.52)"/><path class="cls-1" d="M9,10.62h.11l-1.2-.16.21.06-1.08-.45.1.06-.91-.71.16.15-.71-.91a.76.76,0,0,1,.12.19L5.36,7.79a1.68,1.68,0,0,1,.09.32l-.16-1.2a1.55,1.55,0,0,1,0,.22l.16-1.2,0,.11L5.86,5a.59.59,0,0,1-.11.19l.7-.91-.08.07.92-.7a.81.81,0,0,1-.18.1l1.07-.45a.65.65,0,0,1-.2,0l1.2-.16H9l1.2.16A.83.83,0,0,1,10,3.24L11,3.7l-.27-.16.91.7-.07-.07.7.91a.62.62,0,0,1-.11-.17L12.65,6a.65.65,0,0,1-.05-.2,4.5,4.5,0,0,0-2.07-2.69,4.61,4.61,0,0,0-3.47-.45A4.52,4.52,0,0,0,4.38,4.71a5,5,0,0,0-.46,3.46,5.06,5.06,0,0,0,1.36,2.4,5.5,5.5,0,0,0,2.34,1.37,5.29,5.29,0,0,0,5.19-1.33A5.21,5.21,0,0,0,14,5.39,5.44,5.44,0,0,0,9,1.62a4.53,4.53,0,0,0-4.5,4.5A4.59,4.59,0,0,0,9,10.62Z" transform="translate(2.01 1.52)"/><path class="cls-1" d="M9,10.5H646c5.79,0,5.8-9,0-9H9c-5.79,0-5.8,9,0,9Z" transform="translate(2.01 1.52)"/><path class="cls-1" d="M141,9.5H656c5.79,0,5.8-9,0-9H141c-5.79,0-5.8,9,0,9Z" transform="translate(2.01 1.52)"/><path class="cls-1" d="M24.7,12.63a23.17,23.17,0,0,0,13.2,0c5.1-1.5,3.71-8.38-1.2-8.84l-5.48-.52,1.2,8.84A34.8,34.8,0,0,0,41,9.31L36.42,1.54l-1.94.53-2.27,8.39a7.76,7.76,0,0,0,5.57-1.53C41.75,6,39.54-.59,34.31.7A12.92,12.92,0,0,1,27.44.63L26.25,9.47,153,8.54c5.79,0,5.8-9,0-9L26.25.47c-5,0-6.17,7.52-1.2,8.84a22.56,22.56,0,0,0,11.65.07L33.24,1.16l-1,.3c-4.32-.38-6.31,6.59-2.27,8.39,3.82,1.69,7.44,1.82,11-.54,4.91-3.23.68-10.14-4.54-7.77A25.94,25.94,0,0,1,30,3.39c-5.34.94-3.48,8.4,1.2,8.84l5.48.52L35.51,3.91A14.11,14.11,0,0,1,27.1,4c-5.58-1.6-8,7.08-2.4,8.68Z" transform="translate(2.01 1.52)"/><path class="cls-1" d="M21.89,13.73,19.41,9.49c-2-3.46-7-2.52-8.23,1.08A73.31,73.31,0,0,0,8.82,47.31c.82,4.44,7.67,4.15,8.68,0A72.22,72.22,0,0,0,17.31,12C16,6.87,8.79,8.26,8.47,13.18q-1.28,19.21-1,38.49c.08,6,8.28,5.57,9,0a139.72,139.72,0,0,0,.07-35.39c-.7-5.61-8.73-5.94-9,0a189.08,189.08,0,0,0,3.86,47.28c.91,4.37,7.66,4.2,8.67,0a181.37,181.37,0,0,0,5-50.48C24.84,8.3,17,6.63,16.21,11.89a125,125,0,0,0,.5,39.84c.75,4.35,7.84,4.25,8.68,0a169.94,169.94,0,0,0,3.18-39.24c-.22-5.81-8.69-5.78-9,0A221.38,221.38,0,0,0,21,51.86c.59,4.72,7.37,6.47,8.84,1.19A108.23,108.23,0,0,0,33.51,16c-.43-5.89-8.3-5.68-9,0a119,119,0,0,0,2.18,41c1,4.39,7.56,4.17,8.68,0A114.33,114.33,0,0,0,39,18.73c-.35-4.67-8.08-6.55-8.84-1.2a128.18,128.18,0,0,0,1.42,45c1,4.58,7.4,4,8.68,0a104,104,0,0,0,4.78-38.94c-.32-4.74-7.87-6.5-8.84-1.2a109.27,109.27,0,0,0,.11,40.15c.82,4.39,7.72,4.2,8.67,0a158.05,158.05,0,0,0,3.65-46.2c-.34-4.76-7.74-6.46-8.84-1.19a144.83,144.83,0,0,0-3,37.15c.24,4.85,7.66,6.36,8.84,1.19a103.49,103.49,0,0,0,.48-44.11c-1-4.72-7.27-3.8-8.67,0A58.32,58.32,0,0,0,35.71,44c1.07,4.27,7.62,4.31,8.67,0a76.89,76.89,0,0,0,.93-32.35c-.86-4.73-7.35-3.8-8.68,0a68,68,0,0,0-3.49,29.94c.5,4.68,7.62,6.55,8.84,1.2a65.47,65.47,0,0,0-.39-31C40.7,8.26,35,7,33.37,10.65c-5.13,11.68-6.24,24.06-6.55,36.68-.36,14.57-.33,29.16-.06,43.73.09,4.84,8.14,6.4,8.84,1.2a113.19,113.19,0,0,0-3.53-47.79c-1.17-3.91-8-4.64-8.68,0a242.35,242.35,0,0,0-1.73,60.7c.56,5.64,9.16,5.9,9,0a319.25,319.25,0,0,0-8.58-65.29c-1-4.14-7.9-4.45-8.68,0a204.08,204.08,0,0,0,.85,74.81c1,5,9,3.84,8.84-1.2q-1-31.42-4.18-62.72c-.6-5.84-8.27-5.72-9,0A287.52,287.52,0,0,0,10,124.16c.72,5.59,8.77,6,9,0q1.35-35.34.9-70.7c-.06-4.89-7.89-6.35-8.84-1.2a218.44,218.44,0,0,0-.17,78.62c.92,5.12,8.74,3.72,8.84-1.2L21.1,55.87h-9c2.17,27.67,4.45,55.44,10.87,82.51,1,4.4,7.51,4.17,8.68,0A503.27,503.27,0,0,0,46.44,64.2h-9l6.06,77.88c.44,5.74,9.45,5.78,9,0L46.44,64.2c-.45-5.89-8.3-5.69-9,0A487.64,487.64,0,0,1,23,136h8.68C25.41,109.68,23.2,82.75,21.1,55.87c-.45-5.71-8.89-5.87-9,0l-1.38,73.81,8.84-1.2a206,206,0,0,1,.17-73.82l-8.84-1.2q.46,35.35-.9,70.7h9a287.52,287.52,0,0,1-.08-73.39h-9Q13.14,82,14.09,113.49l8.84-1.2a191.66,191.66,0,0,1-.85-70H13.4a307.3,307.3,0,0,1,8.26,62.9h9a233.23,233.23,0,0,1,1.41-58.31H23.39a102.53,102.53,0,0,1,3.53,43l8.84,1.2q-.37-20,0-40c.23-12.1.44-24.63,5.4-35.89l-8.23-1.08a55.05,55.05,0,0,1,.39,26.27l8.84,1.19A61.57,61.57,0,0,1,45.31,14H36.63a65.73,65.73,0,0,1-.92,27.57h8.67a50,50,0,0,1,1.74-29.87H37.45A92.65,92.65,0,0,1,37,51.06l8.84,1.2A135.18,135.18,0,0,1,48.48,17.5l-8.84-1.2a149.67,149.67,0,0,1-3.32,43.81H45a96.9,96.9,0,0,1-.1-35.37l-8.84-1.19A96.94,96.94,0,0,1,31.59,60.1h8.68a115.39,115.39,0,0,1-1.42-40.17L30,18.73A106.59,106.59,0,0,1,26.69,54.6h8.68A111.81,111.81,0,0,1,33.51,16h-9a100.84,100.84,0,0,1-3.39,34.7L30,51.86a221.38,221.38,0,0,1-1.39-39.37h-9a159.84,159.84,0,0,1-2.86,36.85h8.68a111.15,111.15,0,0,1-.5-35.06l-8.84-1.2a172.46,172.46,0,0,1-4.66,48.08h8.67a179.77,179.77,0,0,1-3.53-44.88h-9a139.72,139.72,0,0,1-.07,35.39h9q-.27-19.28,1-38.49L8.63,14.37a62.19,62.19,0,0,1,.19,30.55H17.5a63.9,63.9,0,0,1,2.36-32L11.64,14l2.47,4.23c2.93,5,10.71.47,7.78-4.54Z" transform="translate(2.01 1.52)"/><path class="cls-1" d="M59.21,91.35a6.69,6.69,0,0,1-2.28-.64l8.24,3.48-1-.59,7,5.39a8.53,8.53,0,0,1-1.73-1.61l5.4,7A16.43,16.43,0,0,1,73,101.14l3.47,8.24a22.29,22.29,0,0,1-.94-3.7l1.23,9.17c-.44-5.36.94-10.64.44-16-.83-8.92-3.17-18-10.1-24.39A35.45,35.45,0,0,0,47.25,65c-7.36-1-15.58,0-22,4.09l-7,5.4A34.44,34.44,0,0,0,9.39,89.66c-5.09,12.2-4.58,26-1.92,38.64,3,14.16,18.9,26,33.27,25.33C55.9,153,69.94,143.42,74,128.3a151.56,151.56,0,0,0,5.36-41.83c-.19-9.88-1.26-19.83-6.21-28.58C63.07,40.1,39.62,35.43,22.41,45l47.2,12.38c-.5-1-1-2-1.38-3l3.48,8.24a45.77,45.77,0,0,1-2.57-9.54l1.24,9.17c-.15-1.09-.25-2.19-.31-3.29L11.18,83.33a7.76,7.76,0,0,1,2,2l-5.39-7,.67,1.26L4.94,71.41l.44,1.35L4.15,63.59,4.33,65c1.2,9.5,3.05,17.35,10.1,24.4,6,6,15.8,10.49,24.4,10.1,8.92-.4,18.17-3.33,24.39-10.1C69,83.15,74.45,73.84,73.33,65c-1.47-11.6-4-22.4-13.36-30.46C49.25,25.26,35.78,21.7,22.28,27.4,10.43,32.41.11,45.34,1.07,58.93a84.73,84.73,0,0,0,9,33.24c3.48,7.11,13,14.12,20.62,15.85a36.67,36.67,0,0,0,26.59-3.48l.84-.46-17.42,4.71h1l-9.17-1.24,1,.37L18.2,99l.77.67-5.39-7,.63,1.16-3.47-8.24L11.07,87,9.83,77.78A108.68,108.68,0,0,1,9.49,103l1.24-9.17A127.34,127.34,0,0,1,7.47,110H74a30.31,30.31,0,0,1-.62-3.4l1.23,9.17a38.82,38.82,0,0,1,.12-8.62l-1.24,9.17A39.15,39.15,0,0,1,75.93,108L8.16,98.83c.35,3.77-.21,7.33-.44,11.08a52.41,52.41,0,0,0,2,17.21c4,14.27,16.22,27.95,31.18,30.77,9.25,1.74,18.22,1.41,26.58-3.48,7.16-4.19,14-12.4,15.85-20.62,3.87-17-5.13-38.86-24.09-42.44Z" transform="translate(2.01 1.52)"/><path class="cls-1" d="M2.85,91.69C-3.33,131.12-2.68,170,6.09,209.09c4,17.63,25.3,29.64,42.44,24.1,18.48-6,28.34-23.56,24.09-42.44q-2.52-11.24-4.12-22.64l1.24,9.18a267.21,267.21,0,0,1,0-70.74l-1.24,9.17c.27-1.9.56-3.8.85-5.69,1.49-9.48,1.56-18-3.48-26.58-4.18-7.16-12.39-14-20.61-15.86-8.84-2-18.75-1.58-26.59,3.48C11.64,75.62,4.21,83,2.85,91.69Z" transform="translate(2.01 1.52)"/><path class="cls-1" d="M12.59,164A441.2,441.2,0,0,1,8.91,229.7l1.23-9.17q-1.31,9.58-3,19.13l67.77,9.17a148.57,148.57,0,0,0-4.16-41.48c-3.35-14.13-18.64-26-33.27-25.33S7.36,192.16,4.21,207.35C.29,226.23,2.37,246.07,13,262.53,17.9,270,24.9,276,33.66,278.39c8.26,2.27,19.26,1.24,26.59-3.48,15.11-9.74,22.87-31,12.37-47.2a47.59,47.59,0,0,1-3.06-5.5L73,230.45a42.32,42.32,0,0,1-2.93-10.58L71.34,229a43,43,0,0,1,.07-9.42l-1.24,9.17c.15-1,.34-2.07.58-3.1H4.21c.88,3.74,1.6,7.49,2.15,11.29l-1.24-9.17a118.13,118.13,0,0,1,.79,21C5,266,19.72,280.55,35.83,282.71c15.61,2.1,34.84-7.77,37.85-24.71a485.68,485.68,0,0,0,7.91-94c-.33-18-15.62-35.34-34.5-34.5-18.4.83-34.86,15.17-34.5,34.5Z" transform="translate(2.01 1.52)"/><path class="cls-1" d="M63.34,234.14c-9-6.09-20.13-6.22-30.37-4.26-7.17,1.38-13.65,6.84-17.92,12.37a33.69,33.69,0,0,0-7.41,20.9c.35,32.29,2.75,65.32-1.44,97.43l1.23-9.18c-.26,1.87-.53,3.72-.82,5.58-1.76,11.34-1,20.75,6.17,30.08,6.23,8.06,16.44,14.36,27.09,13.59L42,400.5c9.23-.66,17.69-3.4,24.4-10.1,6-6,10.48-15.81,10.1-24.4-.79-17.59-15.22-35.88-34.5-34.5l-2.13.15,33.27,43.67c5.79-37.22,3.91-74.64,3.5-112.17L51.31,296.42l1.34-.26H34.3l1.34.28L27.39,293l1.13.76c7.12,4.82,18.51,5.7,26.58,3.48s16.68-8.39,20.62-15.86c9.22-17.45,3.61-36.38-12.38-47.2Z" transform="translate(2.01 1.52)"/><path class="cls-1" d="M56,403c24.51,1.82,46.77-9.18,70.54-12.43l-9.17,1.23c8.63-1,17.11-.41,25.7.7l-9.17-1.23c17.21,2.35,34.1,4.8,51.5,4.8,14.61,0,29.22-.43,43.83-.69l89.86-1.62q88-1.62,176-3.37l100.82-2c18-.35,35.35-15.62,34.5-34.5-.82-18.39-15.17-34.88-34.5-34.5Q424.61,322.8,253.23,326l-47.92.84c-16.44.29-32.84.67-49.18-1.46l9.17,1.23c-10.48-1.43-20.94-3.3-31.5-4.08-10.06-.74-19.94.46-29.86,2.2-14.65,2.55-28.57,8.15-43.33,10.19l9.18-1.23A72.65,72.65,0,0,1,56,334c-8.43-.63-18.59,4.29-24.4,10.1-6,6-10.49,15.8-10.1,24.4C22.42,388.38,36.71,401.6,56,403Z" transform="translate(2.01 1.52)"/><path class="cls-1" d="M624.91,332.89c-19.52-12-40.56-9.16-61.94-6.26l9.17-1.24c-13.71,1.8-26.88-.16-40.59-.16-12.57,0-25,2.64-37.62,1.26l9.17,1.23a44.69,44.69,0,0,1-10.84-2.86l8.24,3.48c-1-.44-2-.92-2.93-1.45-16-8.4-38.23-4.6-47.2,12.37-8.41,15.93-4.68,38.23,12.38,47.21a82.25,82.25,0,0,0,37.68,9.46c8.42.15,16.79-1.08,25.19-1.53,9.21-.5,18.3.62,27.49,1,11.15.47,22.06-1.44,33.09-2.92L577,393.73c6.35-.83,12.66-1.46,19.05-.7l-9.17-1.24a36,36,0,0,1,7.31,2L586,390.28a37.48,37.48,0,0,1,4.1,2.19c15.39,9.48,38.64,3.83,47.21-12.38,8.9-16.86,4-37.08-12.38-47.2Z" transform="translate(2.01 1.52)"/><path class="cls-1" d="M638.19,353.16a206.41,206.41,0,0,0,9.28-34.73c1.81-10.4,3.11-19.31.81-29.7a42.22,42.22,0,0,0-15.54-24.37c-12.06-9.31-29.74-11.13-43.11-3.05-8.42,5.08-14.45,12.73-19.47,21a100.88,100.88,0,0,0-13.79,38c-1.3,9.64-1.66,17.82,3.48,26.59,4.18,7.15,12.39,14,20.61,15.85,19.24,4.38,36.09-5.82,42.44-24.09,9.19-26.43,14.31-54.19,16.21-82.09,1.8-26.34-3.16-52.88.36-79.08l-1.24,9.17c1.69-11.41,4.55-22.56,7-33.83a412,412,0,0,0,6.62-42.52,326.71,326.71,0,0,0-.14-70.39c-1-9-3.08-17.94-10.11-24.39C634.87,9.38,626.5,5.33,617.19,5.43L395.38,7.93,172.77,10.44,47,11.85c-18,.21-35.34,15.73-34.5,34.5.83,18.52,15.16,34.72,34.5,34.5l222.61-2.5L492,75.84l125.18-1.41-34.5-34.5a329.5,329.5,0,0,1-.91,79l1.23-9.17c-4,28.83-13.77,56.86-13.8,86.2,0,13.38,1.43,26.71,1.53,40.09a282.25,282.25,0,0,1-2.52,39.08l1.23-9.17a285,285,0,0,1-13.08,54.34l66.53,18.35a81.84,81.84,0,0,1,5.27-19.82l-3.47,8.24a76.42,76.42,0,0,1,9.15-16l-5.39,7a11.21,11.21,0,0,1,1.87-1.9l-7,5.4,1.1-.68-8.24,3.47,1.23-.41-9.17,1.24a4.75,4.75,0,0,1,2,0L601.05,324l.85.29-8.25-3.48.77.47-7-5.4a6,6,0,0,1,1.29,1.36l-5.39-7a9.29,9.29,0,0,1,1,1.81l-3.48-8.24a22,22,0,0,1,.91,3.27l-1.23-9.17a24.05,24.05,0,0,1,.08,5.75l1.23-9.17a211.76,211.76,0,0,1-10.17,40.34c-2.9,8-.71,19.43,3.47,26.58s12.4,14,20.62,15.86c19.41,4.42,35.88-5.89,42.44-24.1Z" transform="translate(2.01 1.52)"/><path class="cls-1" d="M105.37,80.24q13.38-2.65,26.9-4.5L123.1,77q18.36-2.43,36.86-3.31c18-.86,35.36-15.25,34.5-34.5-.8-18-15.19-35.42-34.5-34.5A495.83,495.83,0,0,0,87,13.71c-8.13,1.61-16.54,8.9-20.61,15.85-4.33,7.4-6.16,18.3-3.48,26.59C69,75,86.37,84,105.37,80.24Z" transform="translate(2.01 1.52)"/><path class="cls-1" d="M55.75,61.83c-9.27,39.18-6.49,78.75-4.9,118.52.75,18.88.4,37.65-.57,56.51-1,18.7-2.1,37.45-1,56.17,1.16,19.21,3.85,39.05,10.63,57.17,3.67,9.8,7.8,20.05,13.66,28.81,5.54,8.29,12,14.7,21.28,18.63,11.12,4.69,25,4.5,35.42-2.33a42.93,42.93,0,0,0,18.23-24.4c1.67-6,2-12.38,2.33-18.56.46-8.86.69-17.73.75-26.6.12-17.85-.42-35.68-1-53.51-1.32-40.2-2.9-80.61,2.4-120.6l-1.23,9.17c2.89-20.91,7.43-42,15.52-61.55l-3.48,8.25a75.7,75.7,0,0,1,9.07-16l-5.39,7A48.67,48.67,0,0,1,175,90.94l-7,5.4,1.23-.92L142.62,98.9l1.08.32-8.24-3.48.91.59-7-5.4.74.81-5.39-7,.58,1-3.48-8.24a16.28,16.28,0,0,1,1,3.57l-1.23-9.17c1.32,14.72-1.21,30.38-2.86,45-1.75,15.43-3.83,30.82-5,46.31a330.38,330.38,0,0,0,6.85,93.65,293.32,293.32,0,0,0,12,41.16c3.33,8.93,7,17.74,11,26.42,3.78,8.34,7.59,16.49,14.18,23.11,12.74,12.8,34,17.94,49.94,7.69C222,346.06,227.21,332,228,315.66c.72-15.08-.2-30.2-.5-45.28-.63-31.14.48-62.34,4.58-93.23l-1.23,9.17c4.24-31.14,11.63-61.81,23.7-90.87l-3.48,8.24a288.8,288.8,0,0,1,16-32.16L204,63.29A54.85,54.85,0,0,1,207,74.91l-1.24-9.17c1,8.15.44,16.24-.62,24.36l1.23-9.17c-4.76,34.13-11.08,68-12.22,102.53-1.06,32.06,1.92,65.2,11.41,95.94,1.9,6.18,4.13,12.22,6.6,18.19,3.69,8.92,7.35,18.42,12.61,26.6,13,20.21,36.65,36.61,61.6,28.06a47.15,47.15,0,0,0,27.91-24.72,169.25,169.25,0,0,0,9.45-26.72c4.27-15.74,6.66-31.83,8.78-48,4-30.22,5-60.72,9-90.93l-1.23,9.17c2.86-20.92,7.27-41.61,15.33-61.19l-3.48,8.24c2.85-6.72,5.85-13.89,10.14-19.83l-5.39,7a28,28,0,0,1,4.09-4l-7,5.4a14,14,0,0,1,2.31-1.42l-8.24,3.47a9.73,9.73,0,0,1,2.35-.8l-9.17,1.23a6.08,6.08,0,0,1,2.25,0l-9.17-1.23,1.06.33-8.24-3.48,1,.59-7-5.39.92.86-5.39-7,.74,1.08L314,86.62a14.94,14.94,0,0,1,1,3.84l-1.23-9.17c1.65,19.32-2.09,38.6-3.9,57.77a366.7,366.7,0,0,0-1.43,49.49c1.59,38.33,9.36,75.27,25.1,110.27,7.26,16.15,16.89,33.56,29.59,46,10.59,10.38,24.35,17.06,39.37,17.08,14.14,0,28.27-6.61,37.9-16.83,14.46-15.34,20.46-36,26.42-55.66,5.62-18.56,10.36-37.38,14.81-56.26,4.89-20.77,9.43-41.62,14.39-62.37,4.83-20.18,9.43-40.84,17.3-60.09l-3.48,8.24a103.5,103.5,0,0,1,12.5-22.15l-5.4,7a35.85,35.85,0,0,1,4.2-4.59l-7,5.39a12.1,12.1,0,0,1,2.47-1.59l-8.24,3.48a7.19,7.19,0,0,1,2.7-.7L502,107l1.42.1-9.17-1.24,1.13.32-8.25-3.47a6,6,0,0,1,1.89,1.17l-7-5.39.77.81-5.4-7a9.63,9.63,0,0,1,1.23,2l-3.48-8.24a24.4,24.4,0,0,1,1.58,6.12L475.47,83c1.74,18.22,1.65,36.79,2.43,55.08l2.4,56.53c1.53,35.92,2.6,72.89,13,107.57,7,23.53,17.62,50.05,43.33,58,19,5.86,38.79-3.42,49-19.83,5.43-8.75,6.76-19.46,8.62-29.35a1175.38,1175.38,0,0,0,16-116.85A1094.46,1094.46,0,0,0,613.79,70c-.5-18-15.52-35.35-34.5-34.5-18.27.82-35,15.18-34.5,34.5a1099.07,1099.07,0,0,1-9.37,176.25l1.23-9.17q-2.68,19.71-6,39.34Q529,286,527.13,295.5c-1.09,5.67-1.78,11.69-4,17.06l3.48-8.24a12.77,12.77,0,0,1-1.33,2.29l5.39-7a8.77,8.77,0,0,1-1.81,1.84l7-5.39-1.12.7,8.24-3.48a7.66,7.66,0,0,1-2.56.81l9.17-1.24a7.54,7.54,0,0,1-2.55-.11L556.2,294l-1.25-.35,8.24,3.48a18.92,18.92,0,0,1-3.57-2.06l7,5.39a30.18,30.18,0,0,1-4.15-4.38l5.4,7a54.84,54.84,0,0,1-5.26-10l3.47,8.24c-7.07-16.9-11.13-34.69-13.6-52.8l1.23,9.18c-4-30.37-4.31-61.2-5.61-91.76L546,117.26l-1-23.81c-.49-11.57-.79-23.66-6.83-34C530.61,46.54,517.27,37.8,502,38c-18,.24-30.3,11.65-40.19,25.33-9.7,13.4-15.84,29.47-20.68,45.19-9,29.36-15.23,59.62-22.07,89.55-3.84,16.75-7.76,33.48-12.19,50.08-4.36,16.37-8.74,33.16-15.19,48.85l3.47-8.24a59.51,59.51,0,0,1-6.72,12l5.39-7a34.1,34.1,0,0,1-5.42,5.52l7-5.4a25.2,25.2,0,0,1-4.23,2.46l8.24-3.48a20.78,20.78,0,0,1-4.73,1.2l9.17-1.23a24.19,24.19,0,0,1-4-.1L409,294a24.81,24.81,0,0,1-4.05-1.12l8.24,3.48a29,29,0,0,1-4.89-2.82l7,5.39a47.71,47.71,0,0,1-8.16-8.46l5.4,7a184.36,184.36,0,0,1-21.29-37.88l3.48,8.24a243.79,243.79,0,0,1-16.14-61.29l1.24,9.17a340.13,340.13,0,0,1-1.52-69.23c1-12.84,2.88-25.59,4.05-38.42,1.72-19,3-41.28-11.4-56C360.65,41.39,345,37.68,331,41.65,318.78,45.09,309.26,53.79,302.35,64,295,74.94,290,88.28,285.67,100.57c-8.49,23.9-11.95,49.32-14.67,74.42-2.81,25.92-4.05,52-7.46,77.84l1.23-9.17c-2.63,19.36-6.28,39-13.52,57.29l3.48-8.24a30.49,30.49,0,0,1-2.88,5.22l5.39-7a13.37,13.37,0,0,1-2,2.11l7-5.4a11.12,11.12,0,0,1-2.4,1.53l8.25-3.47a14.63,14.63,0,0,1-3.71,1l9.17-1.23a11.61,11.61,0,0,1-2.5-.1l9.17,1.23a21.11,21.11,0,0,1-3.73-1.13L284.7,289a29.62,29.62,0,0,1-4.76-3l7,5.39a42.25,42.25,0,0,1-6.22-6.53l5.39,7c-4.57-6.32-7.79-13.67-10.84-20.81l3.48,8.24a220.19,220.19,0,0,1-14.47-54.39l1.23,9.17c-4.52-34.08-2.2-68.45,2.36-102.39l-1.23,9.17c2.11-15.41,4.86-30.72,6.94-46.13,2.22-16.52,3.11-33.84-3.06-49.73-2.16-5.56-4.58-10.93-8.88-15.23a34.05,34.05,0,0,0-19.81-9.49c-13.47-1.81-27.43,4.44-34.37,16.47C169.12,103.09,158.1,181,158.33,256.58c0,10.15.32,20.29.61,30.43.31,10.92,1.05,22.26-.29,33.13l1.23-9.17a11.74,11.74,0,0,1-.64,2.48l3.48-8.24a6.19,6.19,0,0,1-1.29,2.05l5.4-7-1,.77,7-5.39-1.2.54,8.25-3.47-1.21.19,9.17-1.24-1.21-.12,9.18,1.23-1.19-.41,8.24,3.48a9.53,9.53,0,0,1-2.28-1.49l7,5.4a16.42,16.42,0,0,1-2-2.13l5.39,7c-4.69-6.28-7.61-14.38-10.67-21.55l3.48,8.24a300.67,300.67,0,0,1-20.61-75.7l1.23,9.17c-4.24-32.67-1.76-64.71,2.11-97.28,2-17,4.06-34.06,4.22-51.19.16-15.77-6-32.09-20.41-40.15a36.44,36.44,0,0,0-23.09-4.41c-6.93.93-12.14,3.53-17.54,7.7a63.05,63.05,0,0,0-10.49,9.62C95.41,77.92,88.4,117.34,83.76,153.43c-4.07,31.74-3.82,63.81-2.9,95.73,1,36.17,3.69,72.82.62,109l1.24-9.17a21.32,21.32,0,0,1-1.16,4.74L85,345.44a7.81,7.81,0,0,1-1.18,1.93l5.4-7-.78.74,7-5.39-.92.55,8.25-3.47-1.08.33,9.18-1.23-1.4,0,9.17,1.23-1.32-.35,8.24,3.48-1.24-.67,7,5.4a18.71,18.71,0,0,1-3.13-3.22l5.4,7a102,102,0,0,1-8.7-16.43l3.48,8.24a152.35,152.35,0,0,1-9.93-38.14l1.24,9.18c-4.58-36.28,1.08-72.72.67-109.09s-5-72.68-.31-108.88l-1.23,9.17q1.31-9.44,3.48-18.69c4.14-17.53-5.48-38.2-24.1-42.44-17.68-4-38,5.31-42.44,24.1Z" transform="translate(2.01 1.52)"/><path class="cls-1" d="M507.73,62.59c-11.58,36.77-17.12,75.45-19.3,113.87-1,18.1-1.21,36.24-.84,54.37s1.9,36.41-.46,54.5l1.24-9.17a94.23,94.23,0,0,1-5.91,22.13l3.48-8.24A69.35,69.35,0,0,1,478,304l5.4-7a53.6,53.6,0,0,1-8.93,9.07l7-5.39a41.88,41.88,0,0,1-6.79,4l8.24-3.48A32.83,32.83,0,0,1,477,303l9.17-1.23a25.76,25.76,0,0,1-6.08.1l9.17,1.23a24.87,24.87,0,0,1-5.06-1.48l8.25,3.47a25.08,25.08,0,0,1-4.07-2.52l7,5.39a29.5,29.5,0,0,1-3.39-3.41l5.39,7a38.55,38.55,0,0,1-4.49-7.61l3.48,8.24a73.8,73.8,0,0,1-4.7-18l1.23,9.17a553.49,553.49,0,0,1-.32-144.79l-1.24,9.17c2.23-16.55,5.21-33,9.08-49.26,4.9-20.62,13-41.43,2.06-61.8-14.32-26.7-49.86-27.17-72.88-12.32C413.32,54.79,401,69.76,389.69,85.19c-18.63,25.5-30.87,55.9-39.79,86-9.87,33.36-16.57,69-14.86,103.93.94,19.27,3.59,38.85,11.13,56.7a67.31,67.31,0,0,0,20.94,27.82c14,10.81,34.48,13.39,49.68,3.15a48.17,48.17,0,0,0,20.66-31.42c1.82-10.46,2.2-21.13,2.92-31.71l3.48-51.55q3.56-52.55,7.1-105.08c1.3-19.27,2.91-38.39-.39-57.57-4.87-28.32-35.47-47.19-62.89-37.4-14.12,5.05-23.6,13.87-32.23,25.85a147.1,147.1,0,0,0-11.09,19,289.51,289.51,0,0,0-20.08,49.5c-5.14,17.2-8.1,34.92-9.95,52.76-1.72,16.52-2.77,34.76,1.18,51,3.07,12.63,11.31,24.21,22.7,30.6,7.55,4.23,18.14,6.2,26.58,3.47,8.9-2.87,15.33-8.11,20.62-15.85,10.29-15.07,11.28-33.63,12.67-51.2,1.17-14.63,2.31-29.26,3.25-43.91,1.67-26.18,2.08-54.45-7.67-79.25-6.74-17.14-16-34.12-32.29-44-13.35-8.14-31.24-7.74-44.71-.18-8,4.46-14,10.64-19.64,17.65-18.88,23.6-33.36,49.73-41.64,78.95-9.68,34.16-11.8,72.74,6.36,104.52,6.87,12,20.95,18.28,34.38,16.47,12.53-1.68,26.22-11.42,28.68-24.71,3.76-20.31,6.72-40.77,9.1-61.28,2.05-17.59,3.92-35.41,4.11-53.13.21-20.35-3.08-41.16-13.18-59.1-3.89-6.92-9.62-13.88-16.75-17.68a39.38,39.38,0,0,0-38.23.18c-6.66,3.62-10.49,8.92-14.92,14.66A129.18,129.18,0,0,0,246,75.06c-18.08,30.27-23.13,66.21-25,100.81-1.05,19.17-.78,37.87,2,56.91,3.63,25.2,15.27,54,43.84,57.83A40.8,40.8,0,0,0,298.14,282c8-6.2,12.23-14.15,16-23.35a271.61,271.61,0,0,0,9.2-27.52c6.27-21.75,10.12-43.85,13-66.28,1-7.78-4.51-19.26-10.1-24.39A35.51,35.51,0,0,0,306.43,131c-16.32-2.19-33.88,7.92-37.86,24.71-8.11,34.32-12.43,70.38-10.76,105.67.83,17.72,3.11,36,9.71,52.56,4.7,11.81,9.54,21.9,22.15,27.22,10.42,4.4,21.3,3.93,31.62-.42,12.06-5.09,20.38-15.17,26-26.73a274.8,274.8,0,0,0,21-57.58l-67.77-9.17a316.21,316.21,0,0,0,9.52,90c3.33,13.26,15.53,22.95,28.68,24.72a33,33,0,0,0,17.88-2.36c6.24-2.63,13.67-7.64,16.49-14.11,10-23,16.06-46.13,16.75-71.33l-67.76,9.17c2.06,14,4.14,28.07,8.79,41.46,3.65,10.48,7.75,19.79,15.1,28.16,10.59,12.05,27.08,16.75,42.55,13.43,18.54-4,30.88-20.4,43.32-33.43l32.73-34.31c12.47-13.06,13.95-36,0-48.79-13.5-12.4-35.48-13.94-48.79,0l-27.28,28.59c-8.62,9-16.86,19.37-26.55,27.27l7-5.4a23.72,23.72,0,0,1-4,2.35l8.24-3.48a10.29,10.29,0,0,1-2.94.67l9.17-1.23-1.54,0,9.17,1.23a8.77,8.77,0,0,1-2.47-.61l8.24,3.48a10.21,10.21,0,0,1-2.19-1.22l7,5.39a20.85,20.85,0,0,1-2.78-2.7l5.39,7a34.12,34.12,0,0,1-4-7l3.48,8.25c-6.15-15.16-8.67-31.28-11-47.37-1.12-7.63-9.26-17.13-15.85-20.61a35.54,35.54,0,0,0-22-4.1c-17.12,2.3-29.44,16.56-29.92,33.89a157.38,157.38,0,0,1-1.27,16.08l1.23-9.17a146.77,146.77,0,0,1-10.05,36.19l3.48-8.24-.72,1.64,63.06,8.24a292.78,292.78,0,0,1-6.12-31.63l1.23,9.17a286.79,286.79,0,0,1-2.16-49.19c.72-17.15-13.69-31.7-29.91-33.88s-33.9,7.91-37.86,24.71a240.66,240.66,0,0,1-12.54,38.46l3.48-8.25c-2.73,6.34-5.42,13-9.33,18.75l5.4-7a27.47,27.47,0,0,1-2.94,3.25l7-5.39a10.76,10.76,0,0,1-2.25,1.5l8.24-3.47a7.15,7.15,0,0,1-2.44.71l9.17-1.23h-1.28l9.17,1.23-1.31-.29,20.62,15.86c-.76-1.61-1.48-3.22-2.17-4.86l3.47,8.24A119.2,119.2,0,0,1,327,268.21l1.24,9.17c-3.31-25.28-1.86-51.38,1.43-76.59L328.43,210q2.47-18.14,6.68-35.92l-67.77-9.18c-.16,1.25-.32,2.49-.49,3.74l1.23-9.17c-3.78,27.24-9.8,55.42-20.47,80.88l3.47-8.24a28.75,28.75,0,0,1-1.94,3.52l5.4-7a10.73,10.73,0,0,1-1.7,1.92l7-5.4a7.68,7.68,0,0,1-2.09,1.34L266,223l-1.21.39,9.17-1.23a6.89,6.89,0,0,1-2.56.08l9.17,1.23-1.2-.31,8.24,3.48a8.71,8.71,0,0,1-2.23-1.19l7,5.4a20.17,20.17,0,0,1-2.88-2.89l5.4,7a31.15,31.15,0,0,1-2.85-5l3.48,8.24a103.14,103.14,0,0,1-6-23.79l1.23,9.18c-3.22-24.65-1.52-50.67,1.78-75.24l-1.23,9.17c2-14.32,5.22-28.42,10.73-41.83L298.54,124a111.1,111.1,0,0,1,13.26-23.23l-5.4,7a40.53,40.53,0,0,1,4.74-5.47l-7,5.4,1-.61-8.24,3.47,1.14-.28-9.17,1.23,1.21.14-17.41-4.71,1.09.54-7-5.4a8,8,0,0,1,1.83,1.83l-5.39-7a52.66,52.66,0,0,1,4.54,8.35L264.32,97a76.81,76.81,0,0,1,5,19l-1.23-9.17c1.6,13.17.76,26.41-.23,39.59q-1.67,22.4-4.66,44.66l1.23-9.17q-2.62,19.35-6.18,38.55l63.06-8.24a72.79,72.79,0,0,1-3.68-7.4L321.1,213a76.66,76.66,0,0,1-4.6-17.5l1.23,9.17a114.7,114.7,0,0,1,.29-28.44l-1.24,9.17a183.1,183.1,0,0,1,12.32-45.17l-3.48,8.24A187.92,187.92,0,0,1,349.12,108l-5.39,7c3.66-4.72,7.36-9.6,12.09-13.3l-7,5.39a16.82,16.82,0,0,1,2.64-1.59l-8.25,3.47a12.46,12.46,0,0,1,2.83-1l-9.17,1.23a10.06,10.06,0,0,1,3-.15l-9.17-1.23a9.81,9.81,0,0,1,2.77.7L325.25,105a19.79,19.79,0,0,1,3.67,2.26l-7-5.4a37.45,37.45,0,0,1,4.06,4.29l-5.4-7a75.5,75.5,0,0,1,9.4,16L326.53,107a103.55,103.55,0,0,1,6.63,25.63l-1.23-9.17c2,15.89,1.3,31.89.26,47.82-1.22,18.64-2.18,37.44-4.37,56l1.23-9.18a57.14,57.14,0,0,1-3.53,14.17L329,224a38,38,0,0,1-3.18,5.59L373,217.24a10.51,10.51,0,0,1-2.09-1.35l7,5.4a11.12,11.12,0,0,1-1.69-1.74l5.39,7a20.84,20.84,0,0,1-1.86-3.2l3.48,8.24a32.21,32.21,0,0,1-1.89-7.62l1.24,9.17c-1.56-15.08-.34-30.74,1.67-45.71L383,196.58a246.37,246.37,0,0,1,16.62-60.45l-3.48,8.24c5.49-12.9,11.69-26.36,20.28-37.53l-5.39,7a36.54,36.54,0,0,1,5.59-5.53l-7,5.4a28.84,28.84,0,0,1,3.9-2.29l-8.24,3.48a27.51,27.51,0,0,1,4.26-1.29l-9.18,1.23a23.66,23.66,0,0,1,4.37-.19l-9.17-1.24a19.14,19.14,0,0,1,4.15,1L391.5,111a11.6,11.6,0,0,1,2.47,1.47l-7-5.4a12.84,12.84,0,0,1,1.94,1.89l-5.4-7a21.48,21.48,0,0,1,2.11,3.43l-3.48-8.25a33.08,33.08,0,0,1,2.06,8.08L383,96.05c2,18.49-.39,37.45-1.64,55.92l-3.82,56.51L373.71,265c-1.26,18.62-1.83,37.44-3.85,56l1.23-9.18a33.49,33.49,0,0,1-1.79,7.34l3.48-8.24a20.66,20.66,0,0,1-1.7,3.09l5.4-7a9.68,9.68,0,0,1-1.5,1.63l7-5.39a7.6,7.6,0,0,1-1.83,1.17l8.24-3.47a8.15,8.15,0,0,1-2.18.63l9.17-1.23-1.56.05,9.17,1.23a9.16,9.16,0,0,1-3-.73l8.24,3.48a14.14,14.14,0,0,1-2.78-1.58l7,5.39a33.14,33.14,0,0,1-5.57-5.72l5.39,7a49.77,49.77,0,0,1-4.75-8.3l3.48,8.25c-3.79-9.05-5.53-18.79-6.84-28.47l1.24,9.17a223.88,223.88,0,0,1,.59-56.25L404.72,243a350.23,350.23,0,0,1,23.64-87.2L424.88,164a218.78,218.78,0,0,1,26.86-47.32l-5.4,7c6.3-8.11,13.16-16,21.18-22.44l-7,5.39a51.31,51.31,0,0,1,9.29-5.74l-8.24,3.48a35,35,0,0,1,7.3-2.17l-9.17,1.23a25.89,25.89,0,0,1,6.22,0l-9.17-1.24,1.52.38-8.24-3.48a8.7,8.7,0,0,1,2.44,1.26l-7-5.39a8.36,8.36,0,0,1,1.62,1.58l-5.4-7a9.3,9.3,0,0,1,1.13,1.92l-3.48-8.24a17.85,17.85,0,0,1,.91,3.37l-1.23-9.17a29.12,29.12,0,0,1-.1,6.33l1.23-9.17c-1.18,7.7-3.84,15.2-5.69,22.76q-3.13,12.87-5.56,25.88a598.9,598.9,0,0,0-8.13,60.7,561.6,561.6,0,0,0,1.55,106.83c2,18.09,3.44,38,13.94,53.63,7.75,11.54,17.44,19.72,30.67,24.26,14.22,4.88,29.31,1.83,42.49-4.36,20.38-9.57,33.16-30.34,40.73-50.65,6.73-18,7.58-38.34,7.14-57.42-.91-39.8-1.46-79.29,3.77-118.87l-1.23,9.17a397.31,397.31,0,0,1,14.39-65.57c5.42-17.22-6.38-38.4-24.1-42.44-18.78-4.27-36.63,5.66-42.43,24.1Z" transform="translate(2.01 1.52)"/><path class="cls-1" d="M19.94,293.4l-.58-.33a10,10,0,0,0-10.09,0c-5.57,3.54-6.36,8.54-6.3,14.64q.07,8.48.16,17L22.78,322a86.17,86.17,0,0,1,0-25.15L3.14,294.2q-1.32,15.48-1.28,31c0,11.13,16.87,13.77,19.64,2.66a46.81,46.81,0,0,0,.17-22.2c-2.52-11-19.9-8.59-19.65,2.66a522.51,522.51,0,0,0,5.58,64.3c.79,5.35,7.55,8.29,12.3,7,5.73-1.58,7.78-6.94,7-12.31a479.11,479.11,0,0,1-4.87-59L2.38,311a24.17,24.17,0,0,1-.16,11.56l19.64,2.66q0-15.54,1.28-31c.95-11.1-18-13.84-19.64-2.66a118.89,118.89,0,0,0,0,35.78c1.68,11.3,19.75,8.38,19.64-2.66L23,314.3l0-4.71c0-1.37,1.08-5.27-.69-2.42l-3.58,3.58.64-.41H9.27l.58.33c11.2,6.39,21.28-10.88,10.09-17.27Z" transform="translate(2.01 1.52)"/><path class="cls-1" d="M3.24,380a36.79,36.79,0,0,0,1.82,11.68,10.07,10.07,0,0,0,11,7.16c4.43-.59,9.27-4.88,8.67-9.82l-.81-6.65c-.33-2.75-.89-5-2.93-7.07a10.14,10.14,0,0,0-7.07-2.93c-5.2.23-10.27,4.4-10,10l.27,5.52c.2,4.25,2.94,8.64,7.34,9.64a10.35,10.35,0,0,0,11.29-4.59c3.44-5.42,2.24-12.32-2-16.86a10.06,10.06,0,0,0-7.08-2.93A11.47,11.47,0,0,0,6.64,376c-2.84,2.28-3.95,6.56-3.48,10a11.75,11.75,0,0,0,5.73,8.79c4.5,2.67,11.17,1.16,13.68-3.59A10.19,10.19,0,0,0,19,377.55q5.06,3.09,3.28,8a5.28,5.28,0,0,1-1.47,4.63H6.64a6.54,6.54,0,0,1-1.82-4.55l.27-1.72c.82-1.61,1-2,.43-1.11l18.64,5-.27-5.52h-20L4.7,389l19.64-2.66a41.52,41.52,0,0,1-1.07-4.12c-.13-.78-.09-.43.13,1,0-.32-.07-.65-.09-1-.06-.76-.07-1.52-.07-2.29,0-5.23-4.61-10.24-10-10a10.18,10.18,0,0,0-10,10Z" transform="translate(2.01 1.52)"/><path class="cls-1" d="M9,383H8a7.59,7.59,0,0,0-3.85.86,7.4,7.4,0,0,0-3.22,2.07,7.4,7.4,0,0,0-2.07,3.22A7.59,7.59,0,0,0-2,393l.36,2.66a10,10,0,0,0,2.57,4.41A10.38,10.38,0,0,0,8,403H9a7.59,7.59,0,0,0,3.85-.86,7.4,7.4,0,0,0,3.22-2.07,7.4,7.4,0,0,0,2.07-3.22A7.59,7.59,0,0,0,19,393l-.36-2.66a10,10,0,0,0-2.57-4.41A10.38,10.38,0,0,0,9,383Z" transform="translate(2.01 1.52)"/><path class="cls-1" d="M681.74,9.65l-3.36,108.68c-.4,12.88,19.6,12.87,20,0L701.74,9.65c.4-12.88-19.6-12.86-20,0Z" transform="translate(2.01 1.52)"/><path class="cls-1" d="M659,77.67v26c0,12.87,20,12.89,20,0v-26c0-12.87-20-12.89-20,0Z" transform="translate(2.01 1.52)"/><path class="cls-1" d="M680.71,129c4.41,15.37,2.34,32.08,1.82,47.85q-.87,26.47-1.64,52.94-1.53,52.95-2.66,105.91-.65,30-1.15,59.95c-.21,12.87,19.79,12.87,20,0q1.83-107.42,5.32-214.8c.62-18.89,2.89-38.73-2.41-57.17-3.54-12.35-22.85-7.1-19.28,5.32Z" transform="translate(2.01 1.52)"/><path class="cls-1" d="M644.2,384.66a5.09,5.09,0,0,1-.73.81,5.15,5.15,0,0,1,2.58-1.54,6.22,6.22,0,0,1-1,.27c1.74-.2,2.06-.28,1-.23-2.83-.32,1.51.47-.3,0-.76-.18-1.52-.33-2.28-.54-5-1.34-11.1,1.69-12.3,7s1.57,10.86,7,12.3c6.73,1.79,15.43,2.05,20.27-4,1.72-2.14,2.93-4.22,2.93-7.07a10.14,10.14,0,0,0-2.93-7.07c-3.63-3.34-10.64-4.36-14.14,0Z" transform="translate(2.01 1.52)"/></g><g id="Layer_4" data-name="Layer 4"><path class="cls-2" d="M31.67,382.5a1.5,1.5,0,0,0,0-3,1.5,1.5,0,0,0,0,3Z" transform="translate(2.01 1.52)"/><path class="cls-2" d="M662.31,376.86a1.69,1.69,0,0,0,2-.22,1.84,1.84,0,0,0,.53-1.32,1.7,1.7,0,0,0-2.52-1.53,1.5,1.5,0,1,0,1.51,2.59l.07,0-.76.21-.3,0-.66-.39a1.13,1.13,0,0,1,.26-1.83l.76-.2h0l.75.21-.06,0a1.55,1.55,0,0,0-2.05.54,1.5,1.5,0,0,0,.54,2.05Z" transform="translate(2.01 1.52)"/><path class="cls-2" d="M673.67,364.5a1.5,1.5,0,0,0,0-3,1.5,1.5,0,0,0,0,3Z" transform="translate(2.01 1.52)"/><path class="cls-2" d="M673.39,36.73l.67-.67a1.53,1.53,0,0,0,0-2.12,1.51,1.51,0,0,0-2.12,0l-.67.67a1.5,1.5,0,1,0,2.12,2.12Z" transform="translate(2.01 1.52)"/><path class="cls-2" d="M665,49.83a1.5,1.5,0,0,0,0-3,1.5,1.5,0,0,0,0,3Z" transform="translate(2.01 1.52)"/><path class="cls-2" d="M677.67,59.83a1.5,1.5,0,0,0,0-3,1.5,1.5,0,0,0,0,3Z" transform="translate(2.01 1.52)"/><path class="cls-2" d="M338.33,242.17h-.66a1.5,1.5,0,0,0,0,3h.66a1.5,1.5,0,0,0,0-3Z" transform="translate(2.01 1.52)"/><path class="cls-2" d="M361,211.83a1.5,1.5,0,0,0,0-3,1.5,1.5,0,0,0,0,3Z" transform="translate(2.01 1.52)"/><path class="cls-2" d="M326.33,249.17a1.5,1.5,0,0,0,0-3,1.5,1.5,0,0,0,0,3Z" transform="translate(2.01 1.52)"/><path class="cls-2" d="M346.33,266.5a1.5,1.5,0,0,0,0-3,1.5,1.5,0,0,0,0,3Z" transform="translate(2.01 1.52)"/><path class="cls-2" d="M245.86,89.54a1.57,1.57,0,0,0,1,1.9c.6.22.87-.74.26-1a.54.54,0,0,1-.31-.68.5.5,0,0,0-1-.26Z" transform="translate(2.01 1.52)"/><path class="cls-2" d="M260.5,111.67v.66a.5.5,0,0,0,1,0v-.66a.5.5,0,0,0-1,0Z" transform="translate(2.01 1.52)"/><path class="cls-2" d="M243,124.17a.5.5,0,0,0,0-1,.5.5,0,0,0,0,1Z" transform="translate(2.01 1.52)"/><path class="cls-2" d="M666.65,58.65l-.67.66a.5.5,0,0,0,.71.71l.66-.67a.5.5,0,0,0-.7-.7Z" transform="translate(2.01 1.52)"/><path class="cls-2" d="M599.35,189.35l1.34-1.33a.5.5,0,0,0-.71-.71l-1.33,1.34a.5.5,0,0,0,.7.7Z" transform="translate(2.01 1.52)"/><path class="cls-2" d="M607,221.5a.5.5,0,0,0,0-1,.5.5,0,0,0,0,1Z" transform="translate(2.01 1.52)"/><path class="cls-2" d="M587.67,236.83a.5.5,0,0,0,0-1,.5.5,0,0,0,0,1Z" transform="translate(2.01 1.52)"/><path class="cls-2" d="M619.67,260.17a.5.5,0,0,0,0-1,.5.5,0,0,0,0,1Z" transform="translate(2.01 1.52)"/><path class="cls-2" d="M72.65,380l-.67.67c-.46.45.25,1.16.71.7l.66-.66c.46-.46-.25-1.17-.7-.71Z" transform="translate(2.01 1.52)"/><path class="cls-2" d="M82.33,361.83h-.66a.5.5,0,0,0,0,1h.66a.5.5,0,0,0,0-1Z" transform="translate(2.01 1.52)"/><path class="cls-2" d="M66.33,361.5a.5.5,0,0,0,0-1,.5.5,0,0,0,0,1Z" transform="translate(2.01 1.52)"/><path class="cls-2" d="M61,374.83a.5.5,0,0,0,0-1,.5.5,0,0,0,0,1Z" transform="translate(2.01 1.52)"/><path class="cls-2" d="M80,140.69l.67.66a.5.5,0,0,0,.7-.7l-.66-.67a.5.5,0,0,0-.71.71Z" transform="translate(2.01 1.52)"/><path class="cls-2" d="M77,160.83a.5.5,0,0,0,0-1,.5.5,0,0,0,0,1Z" transform="translate(2.01 1.52)"/><path class="cls-2" d="M91,152.83a.5.5,0,0,0,0-1,.5.5,0,0,0,0,1Z" transform="translate(2.01 1.52)"/><path class="cls-2" d="M107.67,152.83a.5.5,0,0,0,0-1,.5.5,0,0,0,0,1Z" transform="translate(2.01 1.52)"/><path class="cls-2" d="M112.33,172.83a.5.5,0,0,0,0-1,.5.5,0,0,0,0,1Z" transform="translate(2.01 1.52)"/><path class="cls-2" d="M129.67,181.5a.5.5,0,0,0,0-1,.5.5,0,0,0,0,1Z" transform="translate(2.01 1.52)"/><path class="cls-2" d="M153,207.5a.5.5,0,0,0,0-1,.5.5,0,0,0,0,1Z" transform="translate(2.01 1.52)"/><path class="cls-2" d="M184.33,238.83a.5.5,0,0,0,0-1,.5.5,0,0,0,0,1Z" transform="translate(2.01 1.52)"/><path class="cls-2" d="M25.37,24.11l-.67-1.33c-.29-.57-1.15-.07-.86.51l.66,1.33c.29.57,1.16.07.87-.51Z" transform="translate(2.01 1.52)"/><path class="cls-2" d="M41,11.83h-.67a.5.5,0,0,0,0,1H41a.5.5,0,0,0,0-1Z" transform="translate(2.01 1.52)"/><path class="cls-2" d="M16.33,8.83a.5.5,0,0,0,0-1,.5.5,0,0,0,0,1Z" transform="translate(2.01 1.52)"/><path class="cls-2" d="M283,112.17a.5.5,0,0,0,0-1,.5.5,0,0,0,0,1Z" transform="translate(2.01 1.52)"/><path class="cls-2" d="M284.33,126.17a.5.5,0,0,0,0-1,.5.5,0,0,0,0,1Z" transform="translate(2.01 1.52)"/><path class="cls-2" d="M642.65,344.65l-.67.66a.5.5,0,0,0,.71.71l.66-.67a.5.5,0,0,0-.7-.7Z" transform="translate(2.01 1.52)"/><path class="cls-2" d="M642.5,351.67v.66a.5.5,0,0,0,1,0v-.66a.5.5,0,0,0-1,0Z" transform="translate(2.01 1.52)"/><path class="cls-2" d="M642.33,362.83a.5.5,0,0,0,0-1,.5.5,0,0,0,0,1Z" transform="translate(2.01 1.52)"/><path class="cls-2" d="M659,361.5a.5.5,0,0,0,0-1,.5.5,0,0,0,0,1Z" transform="translate(2.01 1.52)"/><path class="cls-2" d="M642,220l-.67.67a.5.5,0,0,0,.71.7l.67-.66A.5.5,0,0,0,642,220Z" transform="translate(2.01 1.52)"/><path class="cls-2" d="M596.33,263.5a.5.5,0,0,0,0-1,.5.5,0,0,0,0,1Z" transform="translate(2.01 1.52)"/><path class="cls-2" d="M548.33,189.5a.5.5,0,0,0,0-1,.5.5,0,0,0,0,1Z" transform="translate(2.01 1.52)"/><path class="cls-2" d="M360.05,343.65c0-1-1.61-.95-1.55,0,.05.63,1.05.64,1,0-.16.33-.31.33-.45,0a.5.5,0,0,0,1,0Z" transform="translate(2.01 1.52)"/><path class="cls-2" d="M341,364.17h.67a.5.5,0,0,0,0-1H341a.5.5,0,0,0,0,1Z" transform="translate(2.01 1.52)"/><path class="cls-2" d="M306.69,360.69l.66-.67a.5.5,0,0,0-.7-.71L306,360a.5.5,0,0,0,.71.71Z" transform="translate(2.01 1.52)"/><path class="cls-2" d="M369.35,254.65l-.66-.67a.5.5,0,0,0-.71.71l.67.66a.5.5,0,0,0,.7-.7Z" transform="translate(2.01 1.52)"/><path class="cls-2" d="M373.67,265.5a.5.5,0,0,0,0-1,.5.5,0,0,0,0,1Z" transform="translate(2.01 1.52)"/><path class="cls-2" d="M380.16,278l.67-1.33c.29-.57-.57-1.08-.86-.51l-.67,1.34c-.29.57.57,1.08.86.5Z" transform="translate(2.01 1.52)"/><path class="cls-2" d="M392.33,279.5a.5.5,0,0,0,0-1,.5.5,0,0,0,0,1Z" transform="translate(2.01 1.52)"/><path class="cls-2" d="M395.5,292.33v-.66a.5.5,0,0,0-1,0v.66a.5.5,0,0,0,1,0Z" transform="translate(2.01 1.52)"/><path class="cls-2" d="M608,379.31l-.67-.66a.5.5,0,0,0-.7.7l.66.67a.5.5,0,0,0,.71-.71Z" transform="translate(2.01 1.52)"/><path class="cls-2" d="M610.33,387.5a.5.5,0,0,0,0-1,.5.5,0,0,0,0,1Z" transform="translate(2.01 1.52)"/><path class="cls-2" d="M577.31,269.31l-.66.67a.5.5,0,0,0,.7.71L578,270a.5.5,0,0,0-.71-.71Z" transform="translate(2.01 1.52)"/><path class="cls-2" d="M555.17,293v.67a.5.5,0,0,0,1,0V293a.5.5,0,0,0-1,0Z" transform="translate(2.01 1.52)"/><path class="cls-2" d="M542.33,311.5a.5.5,0,0,0,0-1,.5.5,0,0,0,0,1Z" transform="translate(2.01 1.52)"/><path class="cls-2" d="M528.33,328.83a.5.5,0,0,0,0-1,.5.5,0,0,0,0,1Z" transform="translate(2.01 1.52)"/><path class="cls-2" d="M532.33,343.5a.5.5,0,0,0,0-1,.5.5,0,0,0,0,1Z" transform="translate(2.01 1.52)"/><path class="cls-2" d="M539.67,358.83a.5.5,0,0,0,0-1,.5.5,0,0,0,0,1Z" transform="translate(2.01 1.52)"/><path class="cls-2" d="M500.65,78.65l-.67.66a.5.5,0,0,0,.71.71l.66-.67a.5.5,0,0,0-.7-.7Z" transform="translate(2.01 1.52)"/><path class="cls-2" d="M473.35,102l-.66-.67a.5.5,0,0,0-.71.71l.67.67a.5.5,0,0,0,.7-.71Z" transform="translate(2.01 1.52)"/><path class="cls-2" d="M423.35,38.65l-.66-.67a.5.5,0,0,0-.71.71l.67.66a.5.5,0,0,0,.7-.7Z" transform="translate(2.01 1.52)"/><path class="cls-2" d="M393,31.5a.5.5,0,0,0,0-1,.5.5,0,0,0,0,1Z" transform="translate(2.01 1.52)"/><path class="cls-2" d="M348,10l-.67-.67a.5.5,0,0,0-.7.71l.66.67A.5.5,0,0,0,348,10Z" transform="translate(2.01 1.52)"/><path class="cls-2" d="M343.67,27.5a.5.5,0,0,0,0-1,.5.5,0,0,0,0,1Z" transform="translate(2.01 1.52)"/><path class="cls-2" d="M343.67,27.5a.5.5,0,0,0,0-1,.5.5,0,0,0,0,1Z" transform="translate(2.01 1.52)"/><path class="cls-2" d="M323.67,42.83a.5.5,0,0,0,0-1,.5.5,0,0,0,0,1Z" transform="translate(2.01 1.52)"/><path class="cls-2" d="M272.33,26.83a.5.5,0,0,0,0-1,.5.5,0,0,0,0,1Z" transform="translate(2.01 1.52)"/><path class="cls-2" d="M249,64.83a.5.5,0,0,0,0-1,.5.5,0,0,0,0,1Z" transform="translate(2.01 1.52)"/><path class="cls-2" d="M205,289.5a.5.5,0,0,0,0-1,.5.5,0,0,0,0,1Z" transform="translate(2.01 1.52)"/><path class="cls-2" d="M229.05,359.69c.14-.35.29-.36.45,0,.05-.64-.95-.64-1,0-.06,1,1.55,1,1.55,0a.5.5,0,0,0-1,0Z" transform="translate(2.01 1.52)"/><path class="cls-2" d="M272.33,327.5a.5.5,0,0,0,0-1,.5.5,0,0,0,0,1Z" transform="translate(2.01 1.52)"/><path class="cls-2" d="M271.67,351.5a.5.5,0,0,0,0-1,.5.5,0,0,0,0,1Z" transform="translate(2.01 1.52)"/><path class="cls-2" d="M262.33,359.5a.5.5,0,0,0,0-1,.5.5,0,0,0,0,1Z" transform="translate(2.01 1.52)"/><path class="cls-2" d="M261.17,341v.67a.5.5,0,0,0,1,0V341a.5.5,0,0,0-1,0Z" transform="translate(2.01 1.52)"/><path class="cls-2" d="M277,369.5a.5.5,0,0,0,0-1,.5.5,0,0,0,0,1Z" transform="translate(2.01 1.52)"/><path class="cls-2" d="M283,374.17a.5.5,0,0,0,0-1,.5.5,0,0,0,0,1Z" transform="translate(2.01 1.52)"/><path class="cls-2" d="M285,383.5a.5.5,0,0,0,0-1,.5.5,0,0,0,0,1Z" transform="translate(2.01 1.52)"/><path class="cls-2" d="M293.67,377.5a.5.5,0,0,0,0-1,.5.5,0,0,0,0,1Z" transform="translate(2.01 1.52)"/><path class="cls-2" d="M105,368.83a.5.5,0,0,0,0-1,.5.5,0,0,0,0,1Z" transform="translate(2.01 1.52)"/><path class="cls-2" d="M144.33,277.17h-.66a.5.5,0,0,0,0,1h.66a.5.5,0,0,0,0-1Z" transform="translate(2.01 1.52)"/><path class="cls-2" d="M154.33,318.5h-.66a.5.5,0,0,0,0,1h.66a.5.5,0,0,0,0-1Z" transform="translate(2.01 1.52)"/><path class="cls-2" d="M36.33,307.5a.5.5,0,0,0,0-1,.5.5,0,0,0,0,1Z" transform="translate(2.01 1.52)"/><path class="cls-2" d="M67.67,235.5a.5.5,0,0,0,0-1,.5.5,0,0,0,0,1Z" transform="translate(2.01 1.52)"/><path class="cls-2" d="M85,281.5a.5.5,0,0,0,0-1,.5.5,0,0,0,0,1Z" transform="translate(2.01 1.52)"/><path class="cls-2" d="M23.67,263.5a.5.5,0,0,0,0-1,.5.5,0,0,0,0,1Z" transform="translate(2.01 1.52)"/><path class="cls-2" d="M140.33,38.83H141a.5.5,0,0,0,0-1h-.67a.5.5,0,0,0,0,1Z" transform="translate(2.01 1.52)"/><path class="cls-2" d="M80,82l.67-.67a.5.5,0,0,0-.71-.7l-.67.66A.5.5,0,0,0,80,82Z" transform="translate(2.01 1.52)"/><path class="cls-2" d="M165.67,110.83a.5.5,0,0,0,0-1,.5.5,0,0,0,0,1Z" transform="translate(2.01 1.52)"/><path class="cls-2" d="M465.17,225v.67a.5.5,0,0,0,1,0V225a.5.5,0,0,0-1,0Z" transform="translate(2.01 1.52)"/><path class="cls-2" d="M442.33,259.5a.5.5,0,0,0,0-1,.5.5,0,0,0,0,1Z" transform="translate(2.01 1.52)"/><path class="cls-2" d="M388.69,129.35l.66-.66c.46-.46-.25-1.17-.7-.71l-.67.67c-.46.45.25,1.16.71.7Z" transform="translate(2.01 1.52)"/><path class="cls-2" d="M279.67,234.17a.5.5,0,0,0,0-1,.5.5,0,0,0,0,1Z" transform="translate(2.01 1.52)"/><path class="cls-2" d="M597,54.17a.5.5,0,0,0,0-1,.5.5,0,0,0,0,1Z" transform="translate(2.01 1.52)"/><path class="cls-2" d="M570.33,24.83H571a.5.5,0,0,0,0-1h-.67a.5.5,0,0,0,0,1Z" transform="translate(2.01 1.52)"/><path class="cls-2" d="M598.33,78.17a.5.5,0,0,0,0-1,.5.5,0,0,0,0,1Z" transform="translate(2.01 1.52)"/><path class="cls-2" d="M579.67,80.17a.5.5,0,0,0,0-1,.5.5,0,0,0,0,1Z" transform="translate(2.01 1.52)"/><path class="cls-2" d="M628.33,125.5a.5.5,0,0,0,0-1,.5.5,0,0,0,0,1Z" transform="translate(2.01 1.52)"/><path class="cls-2" d="M595,139.5a.5.5,0,0,0,0-1,.5.5,0,0,0,0,1Z" transform="translate(2.01 1.52)"/><path class="cls-2" d="M625.67,143.17H625a.5.5,0,0,0,0,1h.67a.5.5,0,0,0,0-1Z" transform="translate(2.01 1.52)"/><path class="cls-2" d="M608.33,152.83a.5.5,0,0,0,0-1,.5.5,0,0,0,0,1Z" transform="translate(2.01 1.52)"/><path class="cls-2" d="M620.33,164.83a.5.5,0,0,0,0-1,.5.5,0,0,0,0,1Z" transform="translate(2.01 1.52)"/><path class="cls-2" d="M642.33,178.17a.5.5,0,0,0,0-1,.5.5,0,0,0,0,1Z" transform="translate(2.01 1.52)"/><path class="cls-2" d="M663,167.5a.5.5,0,0,0,0-1,.5.5,0,0,0,0,1Z" transform="translate(2.01 1.52)"/><path class="cls-2" d="M669.67,136.83a.5.5,0,0,0,0-1,.5.5,0,0,0,0,1Z" transform="translate(2.01 1.52)"/><path class="cls-2" d="M454.33,380.5h-.66a.5.5,0,0,0,0,1h.66a.5.5,0,0,0,0-1Z" transform="translate(2.01 1.52)"/><path class="cls-2" d="M447.67,341.17H447a.5.5,0,0,0,0,1h.67a.5.5,0,0,0,0-1Z" transform="translate(2.01 1.52)"/><path class="cls-2" d="M458.33,333.5a.5.5,0,0,0,0-1,.5.5,0,0,0,0,1Z" transform="translate(2.01 1.52)"/><g class="cls-3"><path class="cls-2" d="M666.83,375.67V375a2.5,2.5,0,1,0-5,0v.67a2.5,2.5,0,0,0,5,0Z" transform="translate(2.01 1.52)"/></g><g class="cls-3"><path class="cls-2" d="M675.5,35v-.67a2.5,2.5,0,0,0-5,0V35a2.5,2.5,0,0,0,5,0Z" transform="translate(2.01 1.52)"/></g><g class="cls-3"><path class="cls-2" d="M229,356.5h-.41c-3.22,0-3.23,5,0,5H229c3.22,0,3.22-5,0-5h-.41c-3.22,0-3.23,5,0,5H229c3.22,0,3.22-5,0-5Z" transform="translate(2.01 1.52)"/></g><g class="cls-3"><path class="cls-2" d="M372.17,254.33v-.66a2.5,2.5,0,0,0-5,0v.66a2.5,2.5,0,1,0,5,0Z" transform="translate(2.01 1.52)"/></g><g class="cls-3"><path class="cls-2" d="M167.67,107.17H167a2.5,2.5,0,0,0,0,5h.67a2.5,2.5,0,0,0,0-5Z" transform="translate(2.01 1.52)"/></g><g class="cls-3"><path class="cls-2" d="M68.33,236.83c3.22,0,3.23-5,0-5s-3.22,5,0,5Z" transform="translate(2.01 1.52)"/></g><g class="cls-3"><path class="cls-2" d="M497.17,79v.67a2.5,2.5,0,1,0,5,0V79a2.5,2.5,0,0,0-5,0Z" transform="translate(2.01 1.52)"/></g><g class="cls-3"><path class="cls-2" d="M567.17,25v.67a2.5,2.5,0,0,0,5,0V25a2.5,2.5,0,0,0-5,0Z" transform="translate(2.01 1.52)"/></g><g class="cls-3"><path class="cls-2" d="M11.83,7.67v.66a2.5,2.5,0,0,0,5,0V7.67a2.5,2.5,0,1,0-5,0Z" transform="translate(2.01 1.52)"/></g><path class="cls-2" d="M393.44,292.47l3.52-.56c.37-.06.58-.54.08-.46l-3.51.56c-.37.06-.58.54-.09.46Z" transform="translate(2.01 1.52)"/><path class="cls-2" d="M378.28,275.78a8,8,0,0,0,2.21,2.17c.17.11.77-.18.69-.24a8,8,0,0,1-2.18-2.12c-.12-.17-.77.12-.72.19Z" transform="translate(2.01 1.52)"/><path class="cls-2" d="M473,101.9a3.24,3.24,0,0,1,1.41-1.18c.43-.19-.25-.17-.42-.09a4,4,0,0,0-1.71,1.4c-.07.1.27.07.29.06a.68.68,0,0,0,.43-.19Z" transform="translate(2.01 1.52)"/><path class="cls-2" d="M472,102.47a4.44,4.44,0,0,0-1.63,2.27c0,.11.65,0,.71-.14a4.31,4.31,0,0,1,1.58-2.2c.13-.1-.13-.09-.17-.1a1,1,0,0,0-.49.17Z" transform="translate(2.01 1.52)"/><path class="cls-2" d="M596.65,54.56a9.59,9.59,0,0,1,2.3-2.05c.14-.08.07-.1,0-.13a.87.87,0,0,0-.51.13,10.53,10.53,0,0,0-2.47,2.19c-.07.09.27,0,.29,0a.7.7,0,0,0,.43-.19Z" transform="translate(2.01 1.52)"/><path class="cls-2" d="M595.75,53.43a6.62,6.62,0,0,1,2.07,1.72c.15.19.85-.06.67-.28a6.63,6.63,0,0,0-2.16-1.78c-.21-.11-.88.19-.58.34Z" transform="translate(2.01 1.52)"/><path class="cls-2" d="M624.71,142.62l1.15,4.46c.07.25.79.06.73-.19l-1.16-4.46c-.06-.25-.79-.06-.72.19Z" transform="translate(2.01 1.52)"/><path class="cls-2" d="M641.78,178.58a3.74,3.74,0,0,1,1.88-1.9c.46-.21,0-.42-.28-.28a4.53,4.53,0,0,0-2.32,2.28c-.09.21.62.13.72-.1Z" transform="translate(2.01 1.52)"/><path class="cls-2" d="M641.06,177.55a17.87,17.87,0,0,0,2.12,2.23c.16.14.83-.13.68-.27a17.21,17.21,0,0,1-2.12-2.23c-.13-.16-.82.09-.68.27Z" transform="translate(2.01 1.52)"/><path class="cls-2" d="M610.34,387.35l-.17.17c-.17.17.53.1.66,0l.17-.16c.17-.17-.53-.1-.66,0Z" transform="translate(2.01 1.52)"/><path class="cls-2" d="M609.56,388.25a8.88,8.88,0,0,1,2.85-2.46c.42-.23-.23-.29-.44-.18a9.56,9.56,0,0,0-3.07,2.65c-.18.24.53.16.66,0Z" transform="translate(2.01 1.52)"/><path class="cls-2" d="M608.89,386.57a30.24,30.24,0,0,1,2.75,2.91c.13.15.82-.09.68-.26a34.52,34.52,0,0,0-2.75-2.92c-.16-.14-.83.13-.68.27Z" transform="translate(2.01 1.52)"/><path class="cls-2" d="M153.28,316.77a48.85,48.85,0,0,1,.69,5.66c0,.15.73,0,.72-.19a46.91,46.91,0,0,0-.68-5.67c0-.16-.76,0-.73.2Z" transform="translate(2.01 1.52)"/><path class="cls-2" d="M71.16,379.58a28.56,28.56,0,0,0,6.52,5.84c.17.1.77-.19.69-.25a28.16,28.16,0,0,1-6.49-5.78c-.14-.17-.77.14-.72.19Z" transform="translate(2.01 1.52)"/><path class="cls-2" d="M26.35,261.35A14.14,14.14,0,0,0,21,264.88c-.15.16.54.08.66-.05a13,13,0,0,1,4.93-3.3c.48-.18,0-.28-.26-.18Z" transform="translate(2.01 1.52)"/></g></svg>