<svg xmlns="http://www.w3.org/2000/svg" viewBox="0 0 686.74 386.98"><defs><style>.cls-1{fill:#0c132c;}.cls-2{fill:#fff;}.cls-3{opacity:0.59;}.cls-4{opacity:0.39;}</style></defs><title>space background2</title><g id="Layer_6" data-name="Layer 6"><rect class="cls-1" width="686.74" height="386.98"/></g><g id="Layer_4" data-name="Layer 4"><path class="cls-2" d="M27.41,379.52a1.5,1.5,0,0,0,0-3,1.5,1.5,0,0,0,0,3Z"/><path class="cls-2" d="M669.13,33.75l.67-.67A1.5,1.5,0,1,0,667.68,31l-.67.67a1.53,1.53,0,0,0,0,2.12,1.51,1.51,0,0,0,2.12,0Z"/><path class="cls-2" d="M660.74,46.86a1.5,1.5,0,0,0,0-3,1.5,1.5,0,0,0,0,3Z"/><path class="cls-2" d="M673.41,56.86a1.5,1.5,0,0,0,0-3,1.5,1.5,0,0,0,0,3Z"/><path class="cls-2" d="M334.07,239.19h-.66a1.5,1.5,0,0,0,0,3h.66a1.5,1.5,0,0,0,0-3Z"/><path class="cls-2" d="M356.74,208.86a1.5,1.5,0,0,0,0-3,1.5,1.5,0,0,0,0,3Z"/><path class="cls-2" d="M322.07,246.19a1.5,1.5,0,0,0,0-3,1.5,1.5,0,0,0,0,3Z"/><path class="cls-2" d="M342.07,263.52a1.5,1.5,0,0,0,0-3,1.5,1.5,0,0,0,0,3Z"/><path class="cls-2" d="M241.6,86.56a1.55,1.55,0,0,0,1,1.9c.6.22.86-.74.26-1a.53.53,0,0,1-.31-.67.5.5,0,0,0-1-.27Z"/><path class="cls-2" d="M256.24,108.69v.67a.5.5,0,0,0,1,0v-.67a.5.5,0,0,0-1,0Z"/><path class="cls-2" d="M238.74,121.19a.5.5,0,0,0,0-1,.5.5,0,0,0,0,1Z"/><path class="cls-2" d="M662.39,55.67l-.67.67c-.46.45.25,1.16.71.7l.66-.66c.46-.46-.25-1.17-.7-.71Z"/><path class="cls-2" d="M595.09,186.38l1.34-1.34c.45-.45-.26-1.16-.71-.7l-1.33,1.33a.5.5,0,0,0,.7.71Z"/><path class="cls-2" d="M602.74,218.52a.5.5,0,0,0,0-1,.5.5,0,0,0,0,1Z"/><path class="cls-2" d="M583.41,233.86a.5.5,0,0,0,0-1,.5.5,0,0,0,0,1Z"/><path class="cls-2" d="M615.41,257.19a.5.5,0,0,0,0-1,.5.5,0,0,0,0,1Z"/><path class="cls-2" d="M75.72,137.71l.67.67a.5.5,0,0,0,.7-.71l-.66-.67a.5.5,0,0,0-.71.71Z"/><path class="cls-2" d="M72.74,157.86a.5.5,0,0,0,0-1,.5.5,0,0,0,0,1Z"/><path class="cls-2" d="M86.74,149.86a.5.5,0,0,0,0-1,.5.5,0,0,0,0,1Z"/><path class="cls-2" d="M103.41,149.86a.5.5,0,0,0,0-1,.5.5,0,0,0,0,1Z"/><path class="cls-2" d="M108.07,169.86a.5.5,0,0,0,0-1,.5.5,0,0,0,0,1Z"/><path class="cls-2" d="M125.41,178.52a.5.5,0,0,0,0-1,.5.5,0,0,0,0,1Z"/><path class="cls-2" d="M148.74,204.52a.5.5,0,0,0,0-1,.5.5,0,0,0,0,1Z"/><path class="cls-2" d="M180.07,235.86a.5.5,0,0,0,0-1,.5.5,0,0,0,0,1Z"/><path class="cls-2" d="M21.11,21.14l-.67-1.34c-.29-.57-1.15-.07-.87.51l.67,1.33c.29.58,1.16.07.87-.5Z"/><path class="cls-2" d="M36.74,8.86h-.67a.5.5,0,0,0,0,1h.67a.5.5,0,0,0,0-1Z"/><path class="cls-2" d="M12.07,5.86a.5.5,0,0,0,0-1,.5.5,0,0,0,0,1Z"/><path class="cls-2" d="M278.74,109.19a.5.5,0,0,0,0-1,.5.5,0,0,0,0,1Z"/><path class="cls-2" d="M280.07,123.19a.5.5,0,0,0,0-1,.5.5,0,0,0,0,1Z"/><path class="cls-2" d="M637.72,217l-.67.67a.5.5,0,0,0,.71.71l.67-.67a.5.5,0,0,0-.71-.71Z"/><path class="cls-2" d="M592.07,260.52a.5.5,0,0,0,0-1,.5.5,0,0,0,0,1Z"/><path class="cls-2" d="M544.07,186.52a.5.5,0,0,0,0-1,.5.5,0,0,0,0,1Z"/><path class="cls-2" d="M365.09,251.67l-.66-.67a.5.5,0,0,0-.71.71l.67.67a.5.5,0,0,0,.7-.71Z"/><path class="cls-2" d="M369.41,262.52a.5.5,0,0,0,0-1,.5.5,0,0,0,0,1Z"/><path class="cls-2" d="M375.9,275l.67-1.33c.29-.57-.57-1.08-.86-.5l-.67,1.33c-.29.57.57,1.08.86.5Z"/><path class="cls-2" d="M388.07,276.52a.5.5,0,0,0,0-1,.5.5,0,0,0,0,1Z"/><path class="cls-2" d="M573.05,266.34l-.66.66c-.46.46.25,1.17.7.71l.67-.67a.5.5,0,0,0-.71-.7Z"/><path class="cls-2" d="M496.39,75.67l-.67.67c-.46.45.25,1.16.71.7l.66-.66c.46-.46-.25-1.17-.7-.71Z"/><path class="cls-2" d="M469.09,99l-.66-.66c-.46-.46-1.17.25-.71.7l.67.67c.45.46,1.16-.25.7-.71Z"/><path class="cls-2" d="M419.09,35.67l-.66-.67a.5.5,0,0,0-.71.71l.67.67a.5.5,0,0,0,.7-.71Z"/><path class="cls-2" d="M388.74,28.52a.5.5,0,0,0,0-1,.5.5,0,0,0,0,1Z"/><path class="cls-2" d="M343.76,7l-.67-.66a.5.5,0,0,0-.7.7l.66.67a.5.5,0,0,0,.71-.71Z"/><path class="cls-2" d="M339.41,24.52a.5.5,0,0,0,0-1,.5.5,0,0,0,0,1Z"/><path class="cls-2" d="M339.41,24.52a.5.5,0,0,0,0-1,.5.5,0,0,0,0,1Z"/><path class="cls-2" d="M319.41,39.86a.5.5,0,0,0,0-1,.5.5,0,0,0,0,1Z"/><path class="cls-2" d="M268.07,23.86a.5.5,0,0,0,0-1,.5.5,0,0,0,0,1Z"/><path class="cls-2" d="M244.74,61.86a.5.5,0,0,0,0-1,.5.5,0,0,0,0,1Z"/><path class="cls-2" d="M140.07,274.19h-.66a.5.5,0,0,0,0,1h.66a.5.5,0,0,0,0-1Z"/><path class="cls-2" d="M32.07,304.52a.5.5,0,0,0,0-1,.5.5,0,0,0,0,1Z"/><path class="cls-2" d="M63.41,232.52a.5.5,0,0,0,0-1,.5.5,0,0,0,0,1Z"/><path class="cls-2" d="M19.41,260.52a.5.5,0,0,0,0-1,.5.5,0,0,0,0,1Z"/><path class="cls-2" d="M136.07,35.86h.67a.5.5,0,0,0,0-1h-.67a.5.5,0,0,0,0,1Z"/><path class="cls-2" d="M75.76,79l.67-.66c.45-.46-.26-1.17-.71-.71l-.67.67a.5.5,0,0,0,.71.7Z"/><path class="cls-2" d="M161.41,107.86a.5.5,0,0,0,0-1,.5.5,0,0,0,0,1Z"/><path class="cls-2" d="M460.91,222v.67a.5.5,0,0,0,1,0V222a.5.5,0,0,0-1,0Z"/><path class="cls-2" d="M438.07,256.52a.5.5,0,0,0,0-1,.5.5,0,0,0,0,1Z"/><path class="cls-2" d="M384.43,126.38l.66-.67a.5.5,0,0,0-.7-.71l-.67.67a.5.5,0,0,0,.71.71Z"/><path class="cls-2" d="M275.41,231.19a.5.5,0,0,0,0-1,.5.5,0,0,0,0,1Z"/><path class="cls-2" d="M592.74,51.19a.5.5,0,0,0,0-1,.5.5,0,0,0,0,1Z"/><path class="cls-2" d="M566.07,21.86h.67a.5.5,0,0,0,0-1h-.67a.5.5,0,0,0,0,1Z"/><path class="cls-2" d="M594.07,75.19a.5.5,0,0,0,0-1,.5.5,0,0,0,0,1Z"/><path class="cls-2" d="M575.41,77.19a.5.5,0,0,0,0-1,.5.5,0,0,0,0,1Z"/><path class="cls-2" d="M624.07,122.52a.5.5,0,0,0,0-1,.5.5,0,0,0,0,1Z"/><path class="cls-2" d="M590.74,136.52a.5.5,0,0,0,0-1,.5.5,0,0,0,0,1Z"/><path class="cls-2" d="M621.41,140.19h-.67a.5.5,0,0,0,0,1h.67a.5.5,0,0,0,0-1Z"/><path class="cls-2" d="M604.07,149.86a.5.5,0,0,0,0-1,.5.5,0,0,0,0,1Z"/><path class="cls-2" d="M616.07,161.86a.5.5,0,0,0,0-1,.5.5,0,0,0,0,1Z"/><path class="cls-2" d="M638.07,175.19a.5.5,0,0,0,0-1,.5.5,0,0,0,0,1Z"/><path class="cls-2" d="M658.74,164.52a.5.5,0,0,0,0-1,.5.5,0,0,0,0,1Z"/><path class="cls-2" d="M665.41,133.86a.5.5,0,0,0,0-1,.5.5,0,0,0,0,1Z"/><g class="cls-3"><path class="cls-2" d="M671.24,32v-.66a2.5,2.5,0,0,0-5,0V32a2.5,2.5,0,0,0,5,0Z"/></g><g class="cls-3"><path class="cls-2" d="M367.91,251.36v-.67a2.5,2.5,0,0,0-5,0v.67a2.5,2.5,0,0,0,5,0Z"/></g><g class="cls-3"><path class="cls-2" d="M163.41,104.19h-.67a2.5,2.5,0,0,0,0,5h.67a2.5,2.5,0,1,0,0-5Z"/></g><g class="cls-3"><path class="cls-2" d="M64.07,233.86c3.22,0,3.22-5,0-5s-3.22,5,0,5Z"/></g><g class="cls-3"><path class="cls-2" d="M492.91,76v.67a2.5,2.5,0,0,0,5,0V76a2.5,2.5,0,0,0-5,0Z"/></g><g class="cls-3"><path class="cls-2" d="M562.91,22v.67a2.5,2.5,0,1,0,5,0V22a2.5,2.5,0,1,0-5,0Z"/></g><g class="cls-3"><path class="cls-2" d="M7.57,4.69v.67a2.5,2.5,0,0,0,5,0V4.69a2.5,2.5,0,1,0-5,0Z"/></g><path class="cls-2" d="M374,272.81a7.84,7.84,0,0,0,2.21,2.16c.17.11.77-.18.69-.24a7.86,7.86,0,0,1-2.18-2.12c-.12-.17-.77.12-.72.2Z"/><path class="cls-2" d="M468.7,98.92a3.4,3.4,0,0,1,1.42-1.18c.43-.19-.25-.16-.42-.09a4,4,0,0,0-1.71,1.4c-.07.11.26.07.29.07a.69.69,0,0,0,.42-.2Z"/><path class="cls-2" d="M467.7,99.5a4.41,4.41,0,0,0-1.63,2.26c0,.12.65,0,.71-.13a4.23,4.23,0,0,1,1.58-2.2c.13-.1-.13-.1-.17-.1a.88.88,0,0,0-.49.17Z"/><path class="cls-2" d="M592.39,51.59a9.38,9.38,0,0,1,2.3-2.05c.14-.09.07-.11,0-.14a.86.86,0,0,0-.51.14,10.49,10.49,0,0,0-2.47,2.18c-.07.1.27.06.29.06a.84.84,0,0,0,.43-.19Z"/><path class="cls-2" d="M591.49,50.46a6.45,6.45,0,0,1,2.07,1.71c.15.19.85-.06.67-.28a6.76,6.76,0,0,0-2.16-1.78c-.21-.11-.88.19-.58.35Z"/><path class="cls-2" d="M620.45,139.64l1.15,4.47c.07.25.79.06.73-.2l-1.16-4.46c-.06-.25-.79-.06-.72.19Z"/><path class="cls-2" d="M637.52,175.61a3.73,3.73,0,0,1,1.88-1.91c.46-.21,0-.42-.28-.28a4.44,4.44,0,0,0-2.32,2.29c-.09.2.62.12.72-.1Z"/><path class="cls-2" d="M636.8,174.57a17.87,17.87,0,0,0,2.12,2.23c.16.14.83-.13.68-.26a17.17,17.17,0,0,1-2.12-2.23c-.13-.16-.82.08-.68.26Z"/><path class="cls-2" d="M22.09,258.38a13.92,13.92,0,0,0-5.33,3.52c-.15.16.54.08.66,0a13,13,0,0,1,4.92-3.3c.49-.18,0-.28-.25-.17Z"/><path class="cls-2" d="M287.74,330h-.31a.5.5,0,0,0,0,1h.31a.5.5,0,0,0,0-1h-.31a.5.5,0,0,0,0,1h.31a.5.5,0,0,0,0-1Z"/><path class="cls-2" d="M222.74,371a.5.5,0,0,0,0-1,.5.5,0,0,0,0,1Z"/><path class="cls-2" d="M448.24,326.52v.5a.5.5,0,0,0,1,0v-.5a.5.5,0,0,0-1,0Z"/><path class="cls-2" d="M441.74,347.52v.5a.5.5,0,0,0,1,0v-.5a.5.5,0,0,0-1,0Z"/><path class="cls-2" d="M404.24,357.52v1a.5.5,0,0,0,1,0v-1a.5.5,0,0,0-1,0Z"/><path class="cls-2" d="M411.74,376.52a.5.5,0,0,0,0-1,.5.5,0,0,0,0,1Z"/><path class="cls-2" d="M440.74,368.52v.31a.5.5,0,0,0,1,0v-.31a.5.5,0,0,0-1,0v.31a.5.5,0,0,0,1,0v-.31a.5.5,0,0,0-1,0Z"/><path class="cls-2" d="M429.74,356a.5.5,0,0,0,0-1,.5.5,0,0,0,0,1Z"/><path class="cls-2" d="M409.74,307a.5.5,0,0,0,0-1,.5.5,0,0,0,0,1Z"/><path class="cls-2" d="M406.24,320a.5.5,0,0,0,0-1,.5.5,0,0,0,0,1Z"/><path class="cls-2" d="M376.74,330.52a.5.5,0,0,0,0-1,.5.5,0,0,0,0,1Z"/><path class="cls-2" d="M352.24,355.52a.5.5,0,0,0,0-1,.5.5,0,0,0,0,1Z"/><path class="cls-2" d="M374.74,357.52a.5.5,0,0,0,0-1,.5.5,0,0,0,0,1Z"/><path class="cls-2" d="M604.46,323.54l-1,.5c-.57.3-.07,1.16.51.87l1-.51c.58-.29.07-1.16-.5-.86Z"/><path class="cls-2" d="M597.74,360.52v.5a.5.5,0,0,0,1,0v-.5a.5.5,0,0,0-1,0Z"/><path class="cls-2" d="M624.24,358.52v.5a.5.5,0,0,0,1,0v-.5a.5.5,0,0,0-1,0Z"/><path class="cls-2" d="M629.74,337.52h-.5a.5.5,0,0,0,0,1h.5a.5.5,0,0,0,0-1Z"/><path class="cls-2" d="M612.24,344a.5.5,0,0,0,0-1,.5.5,0,0,0,0,1Z"/><path class="cls-2" d="M614.74,369.52V369a.5.5,0,0,0-1,0v.5a.5.5,0,0,0,1,0Z"/><path class="cls-2" d="M619.24,335.52a1.5,1.5,0,0,0,0-3,1.5,1.5,0,0,0,0,3Z"/><path class="cls-2" d="M391.24,374h-.5a1.5,1.5,0,0,0,0,3h.5a1.5,1.5,0,0,0,0-3Z"/><path class="cls-2" d="M414.18,336.46l-.5.5a1.53,1.53,0,0,0,0,2.12,1.51,1.51,0,0,0,2.12,0l.5-.5a1.5,1.5,0,0,0-2.12-2.12Z"/><path class="cls-2" d="M422.24,344.52h-.5a1.5,1.5,0,0,0,0,3h.5a1.5,1.5,0,0,0,0-3Z"/><g class="cls-4"><path class="cls-2" d="M630.8,337l-.5-.5a1.53,1.53,0,0,0-2.12,0,1.51,1.51,0,0,0,0,2.12l.5.5a1.51,1.51,0,0,0,2.12,0,1.53,1.53,0,0,0,0-2.12Z"/></g><g class="cls-4"><path class="cls-2" d="M600.08,361.8l.5-1a1.54,1.54,0,0,0-.53-2.06,1.52,1.52,0,0,0-2.06.54l-.5,1a1.54,1.54,0,0,0,.54,2,1.51,1.51,0,0,0,2.05-.54Z"/></g><g class="cls-4"><path class="cls-2" d="M411.74,377a1.5,1.5,0,0,0,0-3,1.5,1.5,0,0,0,0,3Z"/></g><g class="cls-4"><path class="cls-2" d="M353.74,355v-.5a1.5,1.5,0,0,0-3,0v.5a1.5,1.5,0,0,0,3,0Z"/></g><g class="cls-4"><path class="cls-2" d="M377.8,332.08l.5-.5a1.5,1.5,0,0,0-2.12-2.12l-.5.5a1.53,1.53,0,0,0,0,2.12,1.51,1.51,0,0,0,2.12,0Z"/></g><g class="cls-4"><path class="cls-2" d="M574.3,266l-.5-.5a1.53,1.53,0,0,0-2.12,0,1.51,1.51,0,0,0,0,2.12l.5.5a1.51,1.51,0,0,0,2.12,0,1.53,1.53,0,0,0,0-2.12Z"/></g></g></svg>